<svg width="31" height="30" viewBox="0 0 31 30" fill="none" xmlns="http://www.w3.org/2000/svg">
<path fill-rule="evenodd" clip-rule="evenodd" d="M18.1885 7.01648H17.1692V11.477C17.1692 11.8751 17.2033 12.1449 17.2598 12.3158C17.3623 12.6012 17.5894 12.7347 17.9184 12.7347C18.2913 12.7347 18.6792 12.5086 19.0862 12.0421V12.6571H20.1082V7.01648H19.0862V11.3279C18.8594 11.648 18.6448 11.8064 18.4404 11.8064C18.3036 11.8064 18.2231 11.7253 18.2007 11.567C18.1885 11.5335 18.1885 11.4092 18.1885 11.1695V7.01648ZM13.6288 7.52687C13.4115 7.81198 13.309 8.2527 13.309 8.85577V10.831C13.309 11.4304 13.4115 11.8754 13.6288 12.1575C13.9114 12.5423 14.3095 12.7347 14.819 12.7347C15.3309 12.7347 15.7286 12.5423 16.0113 12.1575C16.2255 11.8754 16.328 11.4307 16.328 10.831V8.85577C16.328 8.2527 16.2255 7.81168 16.0113 7.52687C15.7286 7.14109 15.3309 6.94835 14.819 6.94835C14.3095 6.94835 13.9114 7.14109 13.6288 7.52687ZM11.3804 8.06027L10.5757 5.08789H9.38335C9.50136 5.4348 9.62185 5.78239 9.74237 6.13005L9.74237 6.13008L9.74238 6.13009L9.7424 6.13015C9.86571 6.48587 9.98905 6.84168 10.1098 7.19694C10.4735 8.2527 10.7003 9.0485 10.8031 9.59173V12.6574H11.9362V9.59173L13.2998 5.08789H12.1535L11.3804 8.06027ZM21.767 24.6816C22.6432 24.5837 23.3709 23.927 23.5759 23.0373C23.8677 21.77 23.869 20.3862 23.869 19.0812V19.0568C23.869 17.759 23.869 16.3848 23.5799 15.1252C23.3746 14.2352 22.6466 13.5787 21.7704 13.4808C19.6951 13.2491 17.5946 13.2479 15.5037 13.2491C13.4121 13.2479 11.3116 13.2491 9.23634 13.4808C8.36013 13.5784 7.63276 14.2352 7.42806 15.1252C7.1365 16.3927 7.13281 17.7763 7.13281 19.0812C7.13281 20.3862 7.13281 21.77 7.42468 23.0373C7.62908 23.9273 8.35706 24.5837 9.23327 24.6816C11.3083 24.9134 13.409 24.9146 15.5 24.9134C17.5918 24.9146 19.6914 24.9134 21.767 24.6816ZM19.9043 17.4666C20.1964 17.0845 20.5982 16.8945 21.1156 16.8945C21.6232 16.8945 22.0256 17.0848 22.3083 17.466C22.5203 17.7483 22.6213 18.1848 22.6213 18.7811V19.9372H20.5982V20.9273C20.5982 21.4435 20.7682 21.7013 21.1156 21.7013C21.3645 21.7013 21.51 21.5662 21.5677 21.2959C21.5766 21.2409 21.5898 21.016 21.5898 20.6108H22.6213V20.7579C22.6213 21.0841 22.6093 21.3084 22.5998 21.4097C22.5661 21.6338 22.4863 21.8366 22.3635 22.0159C22.0836 22.4213 21.669 22.6211 21.1408 22.6211C20.6117 22.6211 20.2087 22.4305 19.9169 22.0493C19.7014 21.7697 19.5918 21.3302 19.5918 20.737V18.7817C19.5918 18.1854 19.6897 17.749 19.9043 17.4666ZM20.5988 19.0957H21.6104V18.5791C21.6104 18.0632 21.4409 17.8048 21.1064 17.8048C20.7685 17.8048 20.5988 18.0629 20.5988 18.5791V19.0957ZM13.9509 21.2283C13.7266 21.5454 13.5145 21.7016 13.3113 21.7016C13.1763 21.7016 13.0993 21.6221 13.0747 21.465C13.0655 21.4324 13.0655 21.309 13.0655 21.0721V16.9626H12.054V21.3756C12.054 21.77 12.088 22.0364 12.1433 22.2058C12.2448 22.4888 12.4695 22.6214 12.7948 22.6214C13.1671 22.6214 13.5489 22.3967 13.9509 21.9357V22.5446H14.9631V16.9626H13.9509V21.2283ZM16.8491 17.4999C17.1753 17.0978 17.5225 16.8947 17.8944 16.8947C18.2965 16.8947 18.5678 17.1064 18.7025 17.525C18.7703 17.7494 18.805 18.1183 18.805 18.6468V20.8694C18.805 21.3859 18.7703 21.7576 18.7025 21.9942C18.5675 22.4097 18.2968 22.6215 17.8944 22.6215C17.5344 22.6215 17.1876 22.4214 16.8491 22.0037V22.5445H15.8378V15.0532H16.8491V17.4999ZM17.353 21.7017C17.6452 21.7017 17.7931 21.4531 17.7931 20.9486V18.5664C17.7931 18.063 17.6449 17.8046 17.353 17.8046C17.187 17.8046 17.0179 17.8838 16.8488 18.0511V21.4528C17.0179 21.6222 17.187 21.7017 17.353 21.7017ZM8.38086 16.1074H9.57012V22.5442H10.6952V16.1074H11.9066V15.0532H8.38086V16.1074ZM15.3066 11.0232C15.3066 11.5449 15.1485 11.8061 14.8192 11.8061C14.4896 11.8061 14.3313 11.5452 14.3313 11.0232V8.65048C14.3313 8.12875 14.4896 7.86849 14.8192 7.86849C15.1485 7.86849 15.3066 8.12844 15.3066 8.65048V11.0232Z" fill="#222222"/>
</svg>
