<svg width="86" height="86" viewBox="0 0 86 86" fill="none" xmlns="http://www.w3.org/2000/svg">
<path opacity="0.05" fill-rule="evenodd" clip-rule="evenodd" d="M47.6214 78.1279C46.978 78.1279 46.3636 77.9987 45.9045 77.7355L10.0903 57.1871C9.07708 56.606 9.20402 55.5906 10.3743 54.9195L12.2124 53.8652L46.0503 73.2791C46.0543 73.2814 46.0583 73.2836 46.0621 73.2859C46.5385 73.5554 47.1726 73.6875 47.8367 73.6875C48.645 73.6875 49.4974 73.4918 50.1634 73.1099L72.626 60.2264L74.5281 61.3178C75.5413 61.8989 75.4141 62.9143 74.2444 63.5854L49.8574 77.5727C49.2177 77.9397 48.3984 78.1279 47.6214 78.1279Z" fill="#000E4B"/>
<path fill-rule="evenodd" clip-rule="evenodd" d="M84.5636 21.6105L47.2969 0.2289C46.8641 -0.0193951 46.4244 -0.0575368 46.034 0.0750868L46.0365 0.0710981L45.9686 0.0967752L45.9523 0.102758L44.6056 0.615054L45.8143 1.20289C45.8085 1.22507 45.8017 1.24576 45.797 1.26845L39.7266 28.7265C39.4228 30.1006 40.0312 31.7051 41.0853 32.3096L77.4559 53.1769L77.3262 54.7085L78.798 54.1416C79.2925 53.9118 79.6886 53.392 79.8522 52.6516L85.9225 25.1935C86.2263 23.8194 85.6177 22.215 84.5636 21.6105Z" fill="#0037A1"/>
<path fill-rule="evenodd" clip-rule="evenodd" d="M84.5642 21.6105L47.2975 0.2289C46.8648 -0.0193951 46.425 -0.0575368 46.0347 0.0750868L46.0372 0.0710981L45.9692 0.0967752L45.9529 0.102758L44.6063 0.615054L45.8149 1.20289C45.8092 1.22507 45.8024 1.24576 45.7976 1.26845L41.7969 19.3651L60.031 33.4823L85.7413 23.0863C85.4942 22.4498 85.0837 21.9084 84.5642 21.6105Z" fill="#B4D0F6"/>
<path fill-rule="evenodd" clip-rule="evenodd" d="M83.1583 25.8317L85.9953 24.6316C86.0473 23.5397 85.5924 22.4116 84.8461 21.8086L80.3555 23.6858L83.1583 25.8317Z" fill="#92B6E7"/>
<path fill-rule="evenodd" clip-rule="evenodd" d="M76.032 54.5624L38.7652 33.1811C37.7109 32.5763 37.1025 30.9718 37.4063 29.598L43.4767 2.13967C43.7802 0.765566 44.8812 0.141836 45.9354 0.74662L83.2021 22.1282C84.2562 22.733 84.8648 24.3372 84.561 25.7115L78.4909 53.1693C78.1871 54.5437 77.0861 55.1674 76.032 54.5624Z" fill="#D7E8FE"/>
<path fill-rule="evenodd" clip-rule="evenodd" d="M83.5602 21.998L46.2932 0.616898C45.7827 0.32398 45.2627 0.324229 44.8262 0.553578C45.1766 0.477294 45.5582 0.530394 45.9355 0.747029L83.2022 22.1281C84.2563 22.7329 84.8649 24.3376 84.5611 25.7117L78.491 53.1695C78.3345 53.878 77.964 54.3821 77.4994 54.6256C78.1283 54.489 78.6536 53.9221 78.8488 53.0396L84.9188 25.5815C85.2226 24.2072 84.6143 22.603 83.5602 21.998Z" fill="#FFFFFE"/>
<path fill-rule="evenodd" clip-rule="evenodd" d="M75.2228 52.5197L40.1742 32.421C39.2096 31.8673 38.653 30.3992 38.9309 29.1418L44.4855 4.01533C44.7634 2.7579 45.7709 2.18727 46.7357 2.7407L81.7843 22.8397C82.7489 23.3931 83.3055 24.8614 83.0278 26.1186L77.473 51.245C77.195 52.5025 76.1876 53.0731 75.2228 52.5197Z" fill="#FFFFFE"/>
<path fill-rule="evenodd" clip-rule="evenodd" d="M75.2228 52.5197L40.1742 32.421C39.2096 31.8673 38.653 30.3992 38.9309 29.1418L44.4855 4.01533C44.7634 2.7579 45.7709 2.18727 46.7357 2.7407L81.7843 22.8397C82.7489 23.3931 83.3055 24.8614 83.0278 26.1186L77.473 51.245C77.195 52.5025 76.1876 53.0731 75.2228 52.5197Z" fill="#000E4B"/>
<path fill-rule="evenodd" clip-rule="evenodd" d="M75.5283 52.3974L40.4797 32.2984C39.5152 31.745 38.9585 30.2767 39.2362 29.0195L44.791 3.89281C44.9318 3.25661 45.2599 2.79842 45.6741 2.57031C45.1184 2.71241 44.6593 3.22994 44.4855 4.01646L38.9309 29.1426C38.653 30.4003 39.2096 31.8684 40.1742 32.4221L75.2228 52.521C75.6994 52.7943 76.1856 52.7915 76.59 52.5689C76.2568 52.6542 75.8898 52.6048 75.5283 52.3974Z" fill="#5589BB"/>
<path fill-rule="evenodd" clip-rule="evenodd" d="M76.5461 55.494L71.4518 54.8256L38.5684 35.9592C37.5143 35.3542 35.6727 35.4302 34.4555 36.1287L11.1545 49.4923L8.07422 49.0882V50.825L8.07698 50.8255C8.05691 51.2268 8.28695 51.6128 8.78441 51.8984L46.0509 73.2795C47.1052 73.8845 48.9466 73.8085 50.164 73.1102L75.5399 58.556C76.2247 58.1629 76.5661 57.6568 76.5461 57.1814V55.494Z" fill="#0037A1"/>
<path fill-rule="evenodd" clip-rule="evenodd" d="M51.8387 43.5729L49.5022 42.2324H23.8168L11.1545 49.4926L8.07422 49.0885V50.8253L8.07698 50.8258C8.05691 51.2271 8.28695 51.613 8.78441 51.8987L46.0509 73.2798C46.608 73.5994 47.3852 73.727 48.1737 73.6752L51.8387 43.5729Z" fill="#B4D0F6"/>
<path fill-rule="evenodd" clip-rule="evenodd" d="M9.44116 49.2674L8.07422 49.0879V50.8247L8.07698 50.8252C8.05691 51.2266 8.28695 51.6125 8.78441 51.8982L9.44116 52.2746V49.2674Z" fill="#92B6E7"/>
<path fill-rule="evenodd" clip-rule="evenodd" d="M46.4258 73.4532C47.4252 73.8296 48.8539 73.7476 49.9205 73.2373V69.3633H46.4258V73.4532Z" fill="#92B6E7"/>
<path fill-rule="evenodd" clip-rule="evenodd" d="M46.0505 71.5448L8.784 50.1638C7.72963 49.5587 7.86209 48.5025 9.07927 47.8039L34.4552 33.2495C35.6723 32.5512 37.5139 32.4755 38.568 33.08L75.8347 54.4616C76.8889 55.0666 76.7569 56.1228 75.5395 56.8214L50.1636 71.3755C48.9462 72.0738 47.1048 72.1498 46.0505 71.5448Z" fill="#D7E8FE"/>
<path fill-rule="evenodd" clip-rule="evenodd" d="M75.5393 56.1865L50.1634 70.7409C48.9459 71.4389 47.1046 71.515 46.0503 70.9102L8.78378 49.5289C8.4381 49.3307 8.22235 49.0834 8.12828 48.8164C7.96347 49.312 8.17369 49.8131 8.78378 50.1633L46.0503 71.5444C47.1046 72.1494 48.9459 72.0734 50.1634 71.3751L75.5393 56.8209C76.3576 56.3515 76.6829 55.7208 76.4898 55.1734C76.3699 55.5346 76.052 55.8923 75.5393 56.1865Z" fill="#FFFFFE"/>
<path fill-rule="evenodd" clip-rule="evenodd" d="M52.9026 53.0961L51.2165 52.1286C51.0811 52.0511 51.0979 51.9155 51.2542 51.8258L52.9249 50.8672C53.0814 50.7775 53.3178 50.7678 53.4532 50.8453L55.1395 51.8128C55.275 51.8903 55.2577 52.0262 55.1014 52.1159L53.4306 53.0742C53.2744 53.1642 53.038 53.1739 52.9026 53.0961Z" fill="#000E4B"/>
<path fill-rule="evenodd" clip-rule="evenodd" d="M55.5063 54.5903L53.8201 53.623C53.6846 53.5453 53.7014 53.4094 53.8577 53.3199L55.5284 52.3614C55.6847 52.2716 55.9215 52.2619 56.0567 52.3394L57.743 53.3069C57.8785 53.3847 57.8612 53.5203 57.7049 53.6101L56.0344 54.5686C55.8779 54.6583 55.6416 54.6681 55.5063 54.5903Z" fill="#000E4B"/>
<path fill-rule="evenodd" clip-rule="evenodd" d="M58.1095 56.0845L56.4235 55.1169C56.288 55.0392 56.3051 54.9036 56.4613 54.8141L58.1318 53.8553C58.2884 53.7658 58.5249 53.7561 58.6601 53.8336L60.3462 54.8011C60.4817 54.8789 60.4648 55.0145 60.3083 55.104L58.6378 56.0628C58.4815 56.1523 58.2447 56.162 58.1095 56.0845Z" fill="#000E4B"/>
<path fill-rule="evenodd" clip-rule="evenodd" d="M60.715 57.5786L59.0289 56.6111C58.8935 56.5333 58.9105 56.3979 59.0668 56.3079L60.7376 55.3494C60.8938 55.2599 61.1304 55.2502 61.2659 55.3279L62.9517 56.2949C63.0871 56.3727 63.0703 56.5086 62.914 56.5981L61.2433 57.5569C61.087 57.6464 60.8502 57.6561 60.715 57.5786Z" fill="#000E4B"/>
<path fill-rule="evenodd" clip-rule="evenodd" d="M65.3446 60.2338L61.6654 58.1227C61.5302 58.0452 61.5473 57.9096 61.7036 57.8199L63.3743 56.8613C63.5306 56.7716 63.7669 56.7619 63.9024 56.8396L67.5815 58.9504C67.7167 59.0279 67.6999 59.1638 67.5436 59.2535L65.8729 60.2118C65.7166 60.3018 65.48 60.3115 65.3446 60.2338Z" fill="#000E4B"/>
<path fill-rule="evenodd" clip-rule="evenodd" d="M70.4134 57.3244L67.308 55.5429C67.1728 55.4651 67.1899 55.3295 67.3462 55.2398L69.0169 54.2812C69.1732 54.1915 69.4095 54.1818 69.545 54.2596L72.6501 56.0413C72.7856 56.1188 72.7688 56.2544 72.6125 56.3444L70.9418 57.3027C70.7855 57.3924 70.5487 57.4021 70.4134 57.3244Z" fill="#000E4B"/>
<path fill-rule="evenodd" clip-rule="evenodd" d="M44.4437 45.3345L42.7575 44.367C42.622 44.2892 42.639 44.1536 42.7953 44.0641L44.4661 43.1053C44.6224 43.0158 44.8589 43.0061 44.9941 43.0836L46.6804 44.0511C46.8159 44.1289 46.7988 44.2645 46.6425 44.3542L44.9718 45.3128C44.8153 45.4023 44.579 45.412 44.4437 45.3345Z" fill="#000E4B"/>
<path fill-rule="evenodd" clip-rule="evenodd" d="M41.7735 43.8032L40.0874 42.8357C39.9522 42.7582 39.969 42.6226 40.1253 42.5326L41.796 41.5743C41.9523 41.4846 42.1889 41.4746 42.3244 41.5526L44.0104 42.5199C44.1456 42.5974 44.1288 42.7333 43.9725 42.8228L42.3018 43.7816C42.1455 43.8713 41.9089 43.881 41.7735 43.8032Z" fill="#000E4B"/>
<path fill-rule="evenodd" clip-rule="evenodd" d="M39.1038 42.2717L37.4177 41.3047C37.2822 41.2269 37.2991 41.091 37.4553 41.0015L39.1261 40.043C39.2826 39.9533 39.5192 39.9435 39.6544 40.0211L41.3407 40.9886C41.4762 41.0664 41.4588 41.2017 41.3026 41.2917L39.6318 42.2502C39.4755 42.34 39.2392 42.3497 39.1038 42.2717Z" fill="#000E4B"/>
<path fill-rule="evenodd" clip-rule="evenodd" d="M36.4378 40.7407L34.7515 39.7732C34.616 39.6954 34.6333 39.56 34.7896 39.4703L36.4603 38.5115C36.6166 38.422 36.8529 38.4123 36.9884 38.4901L38.6744 39.4573C38.8099 39.5351 38.7931 39.6707 38.6368 39.7602L36.9658 40.719C36.8095 40.8085 36.573 40.8182 36.4378 40.7407Z" fill="#000E4B"/>
<path fill-rule="evenodd" clip-rule="evenodd" d="M47.0472 46.8266L45.3609 45.8591C45.2255 45.7814 45.2425 45.6457 45.3991 45.556L47.0696 44.5975C47.2261 44.508 47.4624 44.4983 47.5976 44.5758L49.2839 45.5433C49.4194 45.6211 49.4026 45.7567 49.246 45.8462L47.5753 46.8049C47.419 46.8944 47.1824 46.9042 47.0472 46.8266Z" fill="#000E4B"/>
<path fill-rule="evenodd" clip-rule="evenodd" d="M49.6508 48.3209L47.9645 47.3534C47.829 47.2759 47.8461 47.1403 48.0024 47.0503L49.6733 46.092C49.8296 46.002 50.0659 45.9923 50.2014 46.0701L51.8874 47.0376C52.0229 47.1151 52.0059 47.251 51.8496 47.3405L50.1788 48.299C50.0225 48.3887 49.786 48.3987 49.6508 48.3209Z" fill="#000E4B"/>
<path fill-rule="evenodd" clip-rule="evenodd" d="M52.2561 49.8151L50.5698 48.8476C50.4346 48.7701 50.4514 48.6342 50.6077 48.5444L52.2785 47.5862C52.435 47.4962 52.6713 47.4864 52.8068 47.5642L54.4931 48.5317C54.6283 48.6093 54.6112 48.7449 54.4549 48.8349L52.7842 49.7931C52.6279 49.8831 52.3916 49.8929 52.2561 49.8151Z" fill="#000E4B"/>
<path fill-rule="evenodd" clip-rule="evenodd" d="M54.8597 51.3089L53.1734 50.3414C53.0382 50.2639 53.055 50.1283 53.2112 50.0388L54.882 49.08C55.0383 48.9905 55.2748 48.9805 55.4103 49.0583L57.0963 50.0258C57.2318 50.1033 57.2147 50.239 57.0585 50.3289L55.3877 51.2872C55.2314 51.377 54.9951 51.3867 54.8597 51.3089Z" fill="#000E4B"/>
<path fill-rule="evenodd" clip-rule="evenodd" d="M27.2365 44.5784L25.5502 43.6109C25.415 43.5334 25.4321 43.3977 25.5883 43.308L27.5784 42.1662C27.7347 42.0762 27.9715 42.0665 28.1067 42.1443L29.793 43.1116C29.9285 43.1893 29.9112 43.3252 29.7549 43.4147L27.7648 44.5565C27.6085 44.6465 27.372 44.6562 27.2365 44.5784Z" fill="#000E4B"/>
<path fill-rule="evenodd" clip-rule="evenodd" d="M29.84 46.0725L28.1539 45.1053C28.0185 45.0275 28.0355 44.8916 28.1918 44.8021L30.1819 43.6604C30.3384 43.5704 30.575 43.5607 30.7102 43.6384L32.3963 44.6059C32.5317 44.6835 32.5149 44.8191 32.3586 44.9088L30.368 46.0508C30.2118 46.1406 29.9754 46.1503 29.84 46.0725Z" fill="#000E4B"/>
<path fill-rule="evenodd" clip-rule="evenodd" d="M33.4414 44.8385L31.7554 43.871C31.6202 43.7935 31.637 43.6576 31.7933 43.5681L33.464 42.6096C33.6203 42.5196 33.8569 42.5099 33.9923 42.5877L35.6784 43.5552C35.8136 43.6327 35.7968 43.7683 35.6405 43.8583L33.9697 44.8166C33.8135 44.9066 33.5769 44.9163 33.4414 44.8385Z" fill="#000E4B"/>
<path fill-rule="evenodd" clip-rule="evenodd" d="M36.045 46.3323L34.3589 45.3652C34.2237 45.2875 34.2405 45.1516 34.3968 45.0621L36.0675 44.1033C36.2238 44.0138 36.4604 44.0041 36.5958 44.0816L38.2819 45.0491C38.4171 45.1267 38.4003 45.2623 38.244 45.3523L36.5733 46.3108C36.417 46.4003 36.1804 46.41 36.045 46.3323Z" fill="#000E4B"/>
<path fill-rule="evenodd" clip-rule="evenodd" d="M38.6505 47.8266L36.9645 46.8591C36.829 46.7814 36.8461 46.6457 37.0024 46.5562L38.6731 45.5975C38.8294 45.508 39.0657 45.4983 39.2014 45.5758L40.8875 46.5433C41.0229 46.6211 41.0059 46.7567 40.8496 46.8462L39.1788 47.805C39.0226 47.8945 38.786 47.9042 38.6505 47.8266Z" fill="#000E4B"/>
<path fill-rule="evenodd" clip-rule="evenodd" d="M41.2543 49.321L39.568 48.3535C39.4325 48.2757 39.4496 48.1401 39.6059 48.0503L41.2766 47.0918C41.4329 47.0021 41.6695 46.9923 41.8047 47.0701L43.491 48.0374C43.6264 48.1151 43.6094 48.251 43.4531 48.3405L41.7826 49.299C41.6261 49.3888 41.3895 49.3985 41.2543 49.321Z" fill="#000E4B"/>
<path fill-rule="evenodd" clip-rule="evenodd" d="M43.8577 50.8151L42.1714 49.8476C42.0359 49.7701 42.0533 49.6342 42.2095 49.5444L43.88 48.5862C44.0363 48.4962 44.2729 48.4864 44.4081 48.5642L46.0944 49.5315C46.2298 49.6093 46.213 49.7449 46.0565 49.8346L44.3858 50.7932C44.2295 50.8829 43.9929 50.8926 43.8577 50.8151Z" fill="#000E4B"/>
<path fill-rule="evenodd" clip-rule="evenodd" d="M46.4613 52.309L44.775 51.3417C44.6395 51.264 44.6566 51.1283 44.8131 51.0386L46.4839 50.0801C46.6402 49.9903 46.8765 49.9806 47.0119 50.0584L48.698 51.0259C48.8334 51.1034 48.8164 51.239 48.6601 51.3288L46.9894 52.2873C46.8331 52.3771 46.5965 52.3868 46.4613 52.309Z" fill="#000E4B"/>
<path fill-rule="evenodd" clip-rule="evenodd" d="M49.0647 53.8031L47.3784 52.8356C47.2432 52.7581 47.26 52.6225 47.4163 52.533L49.0873 51.5742C49.2436 51.4845 49.4799 51.4747 49.6154 51.5525L51.3017 52.52C51.4369 52.5976 51.4198 52.7332 51.2635 52.8229L49.5928 53.7815C49.4365 53.8712 49.2002 53.8809 49.0647 53.8031Z" fill="#000E4B"/>
<path fill-rule="evenodd" clip-rule="evenodd" d="M51.6702 55.2973L49.9839 54.33C49.8487 54.2522 49.8655 54.1166 50.0218 54.0269L51.6925 53.0684C51.8488 52.9786 52.0854 52.9689 52.2208 53.0467L53.9071 54.0139C54.0423 54.0917 54.0253 54.2273 53.869 54.3171L52.1983 55.2756C52.042 55.3653 51.8057 55.3751 51.6702 55.2973Z" fill="#000E4B"/>
<path fill-rule="evenodd" clip-rule="evenodd" d="M54.2735 56.7917L52.5874 55.8242C52.4522 55.7464 52.469 55.6106 52.6253 55.5211L54.296 54.5625C54.4523 54.4728 54.6889 54.4631 54.8244 54.5406L56.5104 55.5081C56.6459 55.5859 56.6288 55.7215 56.4725 55.8112L54.8018 56.7698C54.6455 56.8595 54.4092 56.8692 54.2735 56.7917Z" fill="#000E4B"/>
<path fill-rule="evenodd" clip-rule="evenodd" d="M56.8769 58.2856L55.1912 57.3184C55.0557 57.2403 55.0725 57.1047 55.2288 57.0152L56.8995 56.0565C57.0558 55.967 57.2926 55.9572 57.4278 56.0348L59.1139 57.0023C59.2493 57.08 59.2323 57.2157 59.076 57.3054L57.4053 58.2639C57.249 58.3534 57.0124 58.3632 56.8769 58.2856Z" fill="#000E4B"/>
<path fill-rule="evenodd" clip-rule="evenodd" d="M37.2773 44.1312L35.5915 43.1637C35.4561 43.0861 35.4729 42.9505 35.6292 42.861L37.2999 41.9023C37.4562 41.8128 37.693 41.8028 37.8282 41.8806L39.5143 42.8481C39.6497 42.9256 39.6327 43.0612 39.4764 43.1512L37.8056 44.1095C37.6494 44.1992 37.4128 44.209 37.2773 44.1312Z" fill="#000E4B"/>
<path fill-rule="evenodd" clip-rule="evenodd" d="M34.637 42.6156L32.951 41.6481C32.8153 41.5705 32.8323 41.4349 32.9889 41.3452L34.6594 40.3866C34.8156 40.2971 35.0522 40.2872 35.1877 40.3649L36.8737 41.3322C37.0092 41.4097 36.9924 41.5456 36.8358 41.6353L35.1654 42.5939C35.0091 42.6836 34.7723 42.6933 34.637 42.6156Z" fill="#000E4B"/>
<path fill-rule="evenodd" clip-rule="evenodd" d="M31.9884 41.0972L28.357 39.0136C28.2217 38.9361 28.2386 38.8002 28.3948 38.7105L30.0656 37.7522C30.2219 37.6622 30.4584 37.6525 30.5939 37.7302L34.2254 39.8138C34.3608 39.8916 34.3438 40.0272 34.1875 40.117L32.5167 41.0755C32.3605 41.165 32.1241 41.1747 31.9884 41.0972Z" fill="#000E4B"/>
<path fill-rule="evenodd" clip-rule="evenodd" d="M33.8391 39.2492L30.892 37.5583C30.7568 37.4808 30.7739 37.3451 30.9301 37.2552L32.6009 36.2969C32.7572 36.2071 32.9935 36.1974 33.1289 36.2752L36.0761 37.9659C36.2113 38.0434 36.1945 38.179 36.0382 38.269L34.3674 39.2273C34.2112 39.3173 33.9746 39.327 33.8391 39.2492Z" fill="#000E4B"/>
<path fill-rule="evenodd" clip-rule="evenodd" d="M39.883 45.6255L38.197 44.658C38.0615 44.5802 38.0783 44.4446 38.2349 44.3548L39.9054 43.3963C40.0616 43.3068 40.2985 43.2971 40.4337 43.3746L42.1197 44.3419C42.2552 44.4199 42.2381 44.5555 42.0818 44.645L40.4113 45.6038C40.2551 45.6933 40.0182 45.703 39.883 45.6255Z" fill="#000E4B"/>
<path fill-rule="evenodd" clip-rule="evenodd" d="M42.4866 47.1198L40.8003 46.1523C40.6648 46.0746 40.6822 45.9389 40.8384 45.8492L42.5089 44.8907C42.6655 44.8009 42.9018 44.7912 43.037 44.8687L44.7233 45.8362C44.8587 45.914 44.8419 46.0499 44.6857 46.1394L43.0149 47.0979C42.8586 47.1876 42.6218 47.1974 42.4866 47.1198Z" fill="#000E4B"/>
<path fill-rule="evenodd" clip-rule="evenodd" d="M45.0901 48.6139L43.4038 47.6464C43.2684 47.5687 43.2857 47.433 43.442 47.3433L45.1127 46.3848C45.269 46.295 45.5053 46.2853 45.6408 46.3631L47.3268 47.3303C47.4623 47.4081 47.4455 47.5437 47.2892 47.6335L45.6182 48.592C45.4619 48.6817 45.2256 48.6915 45.0901 48.6139Z" fill="#000E4B"/>
<path fill-rule="evenodd" clip-rule="evenodd" d="M47.6955 50.1078L46.0092 49.1403C45.874 49.0628 45.891 48.9272 46.0473 48.8374L47.7181 47.8789C47.8743 47.7892 48.1107 47.7794 48.2461 47.8572L49.9324 48.8247C50.0676 48.9023 50.0508 49.0379 49.8945 49.1274L48.2235 50.0861C48.0673 50.1756 47.8309 50.1856 47.6955 50.1078Z" fill="#000E4B"/>
<path fill-rule="evenodd" clip-rule="evenodd" d="M50.2991 51.602L48.6128 50.6345C48.4776 50.5569 48.4944 50.4213 48.6507 50.3316L50.3217 49.373C50.478 49.2833 50.7143 49.2736 50.8498 49.3514L52.536 50.3186C52.6713 50.3964 52.6542 50.532 52.4979 50.6218L50.8272 51.5803C50.6709 51.67 50.4346 51.6797 50.2991 51.602Z" fill="#000E4B"/>
<path fill-rule="evenodd" clip-rule="evenodd" d="M24.6329 43.0841L22.9469 42.1166C22.8114 42.0391 22.8285 41.9034 22.9848 41.8137L24.9751 40.6717C25.1314 40.5822 25.368 40.5725 25.5032 40.65L27.1895 41.6173C27.3249 41.6953 27.3076 41.8309 27.1513 41.9204L25.1613 43.0624C25.005 43.1521 24.7684 43.1619 24.6329 43.0841Z" fill="#000E4B"/>
<path fill-rule="evenodd" clip-rule="evenodd" d="M57.4629 52.803L55.7769 51.8357C55.6417 51.7579 55.6585 51.6223 55.8148 51.5326L57.4855 50.574C57.6418 50.4845 57.8784 50.4748 58.0138 50.5523L59.6999 51.5196C59.8353 51.5976 59.8183 51.7332 59.662 51.8227L57.9912 52.7815C57.835 52.871 57.5984 52.8807 57.4629 52.803Z" fill="#000E4B"/>
<path fill-rule="evenodd" clip-rule="evenodd" d="M60.0664 54.2976L58.3806 53.3301C58.2451 53.2523 58.2619 53.1167 58.4182 53.0269L60.089 52.0684C60.2453 51.9787 60.4821 51.9689 60.6173 52.0465L62.3033 53.014C62.4388 53.0917 62.4217 53.2276 62.2654 53.3171L60.5947 54.2756C60.4384 54.3654 60.2019 54.3751 60.0664 54.2976Z" fill="#000E4B"/>
<path fill-rule="evenodd" clip-rule="evenodd" d="M62.6722 55.7917L60.9859 54.8242C60.8505 54.7464 60.8675 54.6108 61.0241 54.521L62.6946 53.5625C62.8508 53.4728 63.0874 53.463 63.2226 53.5408L64.9089 54.5081C65.0444 54.5858 65.0276 54.7215 64.871 54.8112L63.2005 55.7697C63.0443 55.8595 62.8074 55.8692 62.6722 55.7917Z" fill="#000E4B"/>
<path fill-rule="evenodd" clip-rule="evenodd" d="M65.2757 57.2856L63.5894 56.3181C63.4539 56.2405 63.4712 56.1049 63.6275 56.0152L65.298 55.0566C65.4545 54.9669 65.6908 54.9572 65.8263 55.035L67.5123 56.0025C67.6478 56.08 67.631 56.2156 67.4747 56.3053L65.8037 57.2639C65.6474 57.3534 65.4109 57.3633 65.2757 57.2856Z" fill="#000E4B"/>
<path fill-rule="evenodd" clip-rule="evenodd" d="M67.8792 58.7797L66.1929 57.8122C66.0574 57.7347 66.0747 57.5991 66.231 57.5091L67.9018 56.5508C68.058 56.461 68.2944 56.4513 68.4298 56.5291L70.1161 57.4963C70.2513 57.5741 70.2345 57.7097 70.0782 57.7995L68.4072 58.758C68.251 58.8478 68.0146 58.8575 67.8792 58.7797Z" fill="#000E4B"/>
<path fill-rule="evenodd" clip-rule="evenodd" d="M43.0726 41.6389L41.3863 40.6719C41.2509 40.5941 41.2679 40.4582 41.4245 40.3687L43.095 39.41C43.2512 39.3205 43.4878 39.3108 43.623 39.3883L45.3093 40.3558C45.4448 40.4333 45.428 40.5689 45.2714 40.6589L43.6009 41.6172C43.4447 41.707 43.2078 41.7169 43.0726 41.6389Z" fill="#000E4B"/>
<path fill-rule="evenodd" clip-rule="evenodd" d="M40.4806 40.1509L38.7946 39.1834C38.6591 39.1056 38.6762 38.97 38.8324 38.8805L40.5032 37.9217C40.6595 37.8322 40.8958 37.8225 41.0312 37.9L42.7175 38.8675C42.853 38.9453 42.8359 39.0809 42.6797 39.1704L41.0089 40.1292C40.8524 40.2187 40.6161 40.2284 40.4806 40.1509Z" fill="#000E4B"/>
<path fill-rule="evenodd" clip-rule="evenodd" d="M37.8908 38.6645L36.2045 37.697C36.0693 37.6192 36.0864 37.4836 36.2426 37.3939L37.9134 36.4354C38.0697 36.3459 38.306 36.3361 38.4414 36.4137L40.1277 37.3809C40.2629 37.459 40.2461 37.5946 40.0898 37.6841L38.4189 38.6428C38.2626 38.7323 38.0263 38.7421 37.8908 38.6645Z" fill="#000E4B"/>
<path fill-rule="evenodd" clip-rule="evenodd" d="M35.2992 37.1784L33.6129 36.2109C33.4775 36.1331 33.4945 35.9975 33.6508 35.9078L35.3218 34.9493C35.4781 34.8595 35.7144 34.8498 35.8499 34.9273L37.5359 35.8948C37.6714 35.9726 37.6543 36.1085 37.498 36.198L35.8273 37.1565C35.671 37.2462 35.4344 37.256 35.2992 37.1784Z" fill="#000E4B"/>
<path fill-rule="evenodd" clip-rule="evenodd" d="M37.963 35.65L36.277 34.6825C36.1415 34.6049 36.1586 34.4693 36.3149 34.3793L36.8673 34.0627C37.0235 33.9727 37.2599 33.963 37.3953 34.0408L39.0816 35.0083C39.2168 35.0858 39.2 35.2214 39.0437 35.3114L38.4911 35.628C38.3348 35.7178 38.0985 35.7275 37.963 35.65Z" fill="#000E4B"/>
<path fill-rule="evenodd" clip-rule="evenodd" d="M41.3437 37.589L39.6579 36.6218C39.5225 36.5442 39.5393 36.4084 39.6956 36.3186L40.248 36.0018C40.4043 35.9123 40.6408 35.9025 40.7763 35.9801L42.4623 36.9476C42.5975 37.0251 42.5807 37.1607 42.4245 37.2505L41.8721 37.5673C41.7158 37.6571 41.4792 37.6668 41.3437 37.589Z" fill="#000E4B"/>
<path fill-rule="evenodd" clip-rule="evenodd" d="M43.9243 39.0697L42.238 38.1022C42.1025 38.0244 42.1193 37.8888 42.2759 37.7993L42.828 37.4822C42.9843 37.3927 43.2209 37.383 43.3563 37.4608L45.0426 38.4278C45.1781 38.5055 45.1608 38.6414 45.0045 38.7309L44.4524 39.048C44.2961 39.1375 44.0595 39.1472 43.9243 39.0697Z" fill="#000E4B"/>
<path fill-rule="evenodd" clip-rule="evenodd" d="M46.5043 40.5502L44.818 39.5827C44.6825 39.5051 44.6996 39.3695 44.8559 39.2795L45.4083 38.9629C45.5646 38.8732 45.8011 38.8635 45.9363 38.941L47.6226 39.9085C47.7581 39.986 47.7408 40.1219 47.5845 40.2116L47.0324 40.5285C46.8761 40.6182 46.6395 40.628 46.5043 40.5502Z" fill="#000E4B"/>
<path fill-rule="evenodd" clip-rule="evenodd" d="M49.0842 42.0309L47.3979 41.0634C47.2627 40.9856 47.2797 40.85 47.436 40.7602L47.9881 40.4431C48.1447 40.3536 48.381 40.3439 48.5165 40.4217L50.2025 41.3889C50.338 41.4667 50.3212 41.6023 50.1646 41.6921L49.6122 42.0089C49.4559 42.0987 49.2196 42.1084 49.0842 42.0309Z" fill="#000E4B"/>
<path fill-rule="evenodd" clip-rule="evenodd" d="M63.4906 50.2965L61.8043 49.329C61.6689 49.2514 61.6859 49.1158 61.8422 49.0258L62.3946 48.709C62.5509 48.6192 62.7875 48.6095 62.9227 48.6873L64.609 49.6548C64.7444 49.7323 64.7271 49.8679 64.5708 49.9579L64.0187 50.2745C63.8624 50.3643 63.6258 50.374 63.4906 50.2965Z" fill="#000E4B"/>
<path fill-rule="evenodd" clip-rule="evenodd" d="M66.0706 51.7765L64.3843 50.8095C64.2488 50.7317 64.2661 50.5959 64.4224 50.5064L64.9746 50.1893C65.1309 50.0998 65.3674 50.09 65.5026 50.1676L67.1889 51.1351C67.3244 51.2129 67.3076 51.3485 67.151 51.438L66.5986 51.7551C66.4424 51.8448 66.206 51.8545 66.0706 51.7765Z" fill="#000E4B"/>
<path fill-rule="evenodd" clip-rule="evenodd" d="M68.6506 53.2572L66.9643 52.2897C66.8291 52.2121 66.8461 52.0765 67.0024 51.9868L67.5548 51.6699C67.7111 51.5802 67.9474 51.5705 68.0829 51.6482L69.7689 52.6155C69.9044 52.6933 69.8876 52.8289 69.7313 52.9186L69.1789 53.2355C69.0223 53.325 68.786 53.3347 68.6506 53.2572Z" fill="#000E4B"/>
<path fill-rule="evenodd" clip-rule="evenodd" d="M71.2306 54.7357L69.5448 53.7685C69.4091 53.6907 69.4261 53.5551 69.5824 53.4653L70.1348 53.1485C70.2911 53.0587 70.5274 53.049 70.6631 53.1265L72.3492 54.094C72.4844 54.1718 72.4676 54.3077 72.3113 54.3972L71.7589 54.714C71.6026 54.8038 71.366 54.8135 71.2306 54.7357Z" fill="#000E4B"/>
<path fill-rule="evenodd" clip-rule="evenodd" d="M45.6761 43.1313L43.9898 42.1638C43.8543 42.086 43.8716 41.9504 44.0279 41.8609L45.6984 40.9022C45.8549 40.8127 46.0912 40.8029 46.2267 40.8805L47.9127 41.848C48.0482 41.9258 48.0314 42.0614 47.8751 42.1509L46.2044 43.1096C46.0478 43.1991 45.8113 43.2089 45.6761 43.1313Z" fill="#000E4B"/>
<path fill-rule="evenodd" clip-rule="evenodd" d="M48.2796 44.6255L46.5933 43.658C46.4578 43.5802 46.4751 43.4446 46.6314 43.3548L48.3021 42.3963C48.4584 42.3068 48.6947 42.2971 48.8302 42.3746L50.5165 43.3419C50.6517 43.4196 50.6349 43.5555 50.4786 43.645L48.8076 44.6038C48.6513 44.6933 48.415 44.703 48.2796 44.6255Z" fill="#000E4B"/>
<path fill-rule="evenodd" clip-rule="evenodd" d="M50.8831 46.1198L49.1968 45.1523C49.0616 45.0748 49.0784 44.9391 49.2347 44.8492L50.9057 43.8906C51.062 43.8009 51.2983 43.7912 51.4337 43.8689L53.12 44.8362C53.2552 44.914 53.2382 45.0498 53.0819 45.1393L51.4112 46.0979C51.2549 46.1876 51.0186 46.1973 50.8831 46.1198Z" fill="#000E4B"/>
<path fill-rule="evenodd" clip-rule="evenodd" d="M53.4866 47.6137L51.8003 46.6464C51.6651 46.5689 51.6819 46.433 51.8382 46.3433L53.5092 45.3848C53.6655 45.295 53.9018 45.2853 54.0372 45.3631L55.7235 46.3306C55.8587 46.4081 55.8417 46.5437 55.6854 46.6335L54.0147 47.592C53.8584 47.6817 53.6221 47.6915 53.4866 47.6137Z" fill="#000E4B"/>
<path fill-rule="evenodd" clip-rule="evenodd" d="M56.092 49.1078L54.406 48.1403C54.2705 48.0628 54.2873 47.9272 54.4436 47.8377L56.1144 46.8789C56.2706 46.7892 56.5075 46.7794 56.6427 46.8572L58.329 47.8247C58.4644 47.9023 58.4471 48.0379 58.2908 48.1276L56.6201 49.0861C56.4638 49.1759 56.2275 49.1856 56.092 49.1078Z" fill="#000E4B"/>
<path fill-rule="evenodd" clip-rule="evenodd" d="M58.6955 50.6018L57.0095 49.6345C56.874 49.5567 56.8908 49.4211 57.0474 49.3314L58.7179 48.3729C58.8741 48.2834 59.111 48.2736 59.2462 48.3512L60.9322 49.3184C61.0677 49.3962 61.0506 49.5318 60.8943 49.6216L59.2238 50.5803C59.0673 50.6698 58.8307 50.6796 58.6955 50.6018Z" fill="#000E4B"/>
<path fill-rule="evenodd" clip-rule="evenodd" d="M61.299 52.0964L59.6129 51.1289C59.4775 51.0511 59.4945 50.9153 59.6508 50.8258L61.3213 49.8672C61.4778 49.7775 61.7144 49.7678 61.8496 49.8453L63.5356 50.8128C63.6711 50.8906 63.6543 51.0262 63.4978 51.1159L61.8273 52.0745C61.671 52.1642 61.4342 52.1739 61.299 52.0964Z" fill="#000E4B"/>
<path fill-rule="evenodd" clip-rule="evenodd" d="M63.9026 53.5903L62.2165 52.6231C62.0808 52.5453 62.0981 52.4094 62.2544 52.3199L63.9252 51.3611C64.0814 51.2716 64.3178 51.2619 64.4535 51.3395L66.1393 52.307C66.2747 52.3847 66.2579 52.5204 66.1016 52.6101L64.4309 53.5686C64.2746 53.6581 64.0378 53.6678 63.9026 53.5903Z" fill="#000E4B"/>
<path fill-rule="evenodd" clip-rule="evenodd" d="M66.508 55.0844L64.8217 54.1169C64.6865 54.0394 64.7035 53.9037 64.8598 53.814L66.5306 52.8555C66.6868 52.7657 66.9232 52.756 67.0586 52.8338L68.7449 53.801C68.8801 53.8788 68.8633 54.0144 68.707 54.1039L67.0363 55.0627C66.8798 55.1522 66.6435 55.1619 66.508 55.0844Z" fill="#000E4B"/>
<path fill-rule="evenodd" clip-rule="evenodd" d="M30.7877 43.3159L25.8219 40.4667C25.6864 40.3892 25.7035 40.2534 25.8598 40.1636L27.5305 39.2051C27.6868 39.1153 27.9231 39.1056 28.0586 39.1834L33.0246 42.0323C33.1598 42.1101 33.143 42.2459 32.9868 42.3354L31.316 43.294C31.1597 43.3837 30.9232 43.3934 30.7877 43.3159Z" fill="#000E4B"/>
<path fill-rule="evenodd" clip-rule="evenodd" d="M62.7781 61.6714L57.812 58.8222C57.6768 58.7447 57.6936 58.609 57.8499 58.5191L59.5207 57.5608C59.6769 57.4708 59.9135 57.4611 60.049 57.5388L65.0148 60.388C65.1502 60.4658 65.1332 60.6014 64.9769 60.6909L63.3062 61.6497C63.1499 61.7392 62.9136 61.7489 62.7781 61.6714Z" fill="#000E4B"/>
<path fill-rule="evenodd" clip-rule="evenodd" d="M52.3654 58.9963L50.6793 58.0288C50.5439 57.9513 50.5609 57.8157 50.7172 57.7259L52.7075 56.5842C52.8638 56.4942 53.1004 56.4845 53.2359 56.5625L54.9219 57.5297C55.0574 57.6073 55.0403 57.7431 54.884 57.8326L52.8937 58.9746C52.7371 59.0644 52.5008 59.0741 52.3654 58.9963Z" fill="#000E4B"/>
<path fill-rule="evenodd" clip-rule="evenodd" d="M33.454 48.1465L30.7575 46.5994C30.622 46.5213 30.639 46.3857 30.7953 46.2962L32.7857 45.1542C32.942 45.0647 33.1785 45.0547 33.314 45.1325L36.0105 46.6796C36.146 46.7574 36.1289 46.893 35.9724 46.9828L33.9823 48.1245C33.826 48.2143 33.5894 48.224 33.454 48.1465Z" fill="#000E4B"/>
<path fill-rule="evenodd" clip-rule="evenodd" d="M49.8564 57.5565L47.1599 56.0094C47.0244 55.9316 47.0412 55.796 47.1975 55.7063L49.1879 54.5645C49.3444 54.4747 49.5807 54.465 49.7162 54.5426L52.4129 56.0897C52.5484 56.1677 52.5311 56.3033 52.3748 56.3928L50.3847 57.5348C50.2284 57.6243 49.9919 57.634 49.8564 57.5565Z" fill="#000E4B"/>
<path fill-rule="evenodd" clip-rule="evenodd" d="M37.2119 50.3026L34.5152 48.7555C34.3799 48.6777 34.3968 48.5421 34.553 48.4524L36.5434 47.3104C36.6997 47.2209 36.9362 47.2111 37.0714 47.2887L39.7682 48.836C39.9034 48.9136 39.8866 49.0494 39.7303 49.1389L37.74 50.2807C37.5837 50.3707 37.3471 50.3804 37.2119 50.3026Z" fill="#000E4B"/>
<path fill-rule="evenodd" clip-rule="evenodd" d="M37.0895 47.2988L48.814 54.0257C48.9592 54.109 48.9592 54.2444 48.814 54.3279L46.7843 55.4923C46.6388 55.5758 46.4027 55.5758 46.2575 55.4923L34.5332 48.7657L37.0895 47.2988Z" fill="#000E4B"/>
<path fill-rule="evenodd" clip-rule="evenodd" d="M59.644 61.7052L61.5222 62.7827C61.6334 62.8462 61.6193 62.9574 61.4911 63.031L60.6771 63.4981C60.5489 63.5717 60.355 63.5797 60.2439 63.5158L58.3659 62.4384C58.255 62.3746 58.2688 62.2636 58.397 62.1901L59.2111 61.7229C59.3392 61.6494 59.5329 61.6414 59.644 61.7052Z" fill="#000E4B"/>
<path fill-rule="evenodd" clip-rule="evenodd" d="M57.0173 60.1994L58.8955 61.2768C59.0066 61.3406 58.9925 61.4518 58.8644 61.5254L58.0501 61.9923C57.9219 62.0658 57.7282 62.0738 57.6173 62.0102L55.7389 60.9325C55.628 60.869 55.642 60.7578 55.77 60.6842L56.5843 60.2171C56.7125 60.1435 56.9064 60.1355 57.0173 60.1994Z" fill="#000E4B"/>
<path fill-rule="evenodd" clip-rule="evenodd" d="M54.4137 58.7049L56.2919 59.7828C56.4028 59.8464 56.389 59.9576 56.2608 60.0311L55.4465 60.4983C55.3186 60.5719 55.1247 60.5796 55.0138 60.516L53.1354 59.4383C53.0245 59.3748 53.0385 59.2636 53.1665 59.19L53.9808 58.7229C54.1089 58.6493 54.3029 58.6416 54.4137 58.7049Z" fill="#000E4B"/>
<path fill-rule="evenodd" clip-rule="evenodd" d="M58.4547 59.3731L60.3329 60.4505C60.4438 60.5143 60.4297 60.6255 60.3018 60.6991L59.4877 61.1662C59.3596 61.2395 59.1656 61.2478 59.0548 61.1842L57.1766 60.1063C57.0654 60.0429 57.0795 59.9315 57.2077 59.858L58.0217 59.3908C58.1499 59.3172 58.3438 59.3095 58.4547 59.3731Z" fill="#000E4B"/>
<path fill-rule="evenodd" clip-rule="evenodd" d="M36.1462 62.0966L24.5193 55.4258C24.1811 55.2316 24.2235 54.8923 24.6141 54.6682L31.6307 50.6426C32.0216 50.4183 32.6126 50.3939 32.9513 50.5883L44.5779 57.2591C44.9163 57.4533 44.874 57.7923 44.4831 58.0167L37.4668 62.042C37.0759 62.2664 36.4849 62.2908 36.1462 62.0966Z" fill="#FFFFFE"/>
<mask id="mask0_1447_1018" style="mask-type:alpha" maskUnits="userSpaceOnUse" x="51" y="4" width="30" height="45">
<path fill-rule="evenodd" clip-rule="evenodd" d="M67.7193 45.9591L73.4228 22.8195L51.8711 10.1251L64.3108 4.42773L80.3125 10.5596C80.3125 10.5596 80.4096 38.5798 80.3125 38.862C80.2154 39.144 74.3849 48.545 74.3849 48.545L67.7193 45.9591Z" fill="white"/>
</mask>
<g mask="url(#mask0_1447_1018)">
<path fill-rule="evenodd" clip-rule="evenodd" d="M60.7279 14.1319C60.683 14.0689 60.616 14.0095 60.5264 13.9582L57.7639 12.3732C57.5841 12.2702 57.3493 12.2191 57.1142 12.2191C56.908 12.2191 56.7015 12.2583 56.532 12.3363L56.0706 12.5998L55.9043 12.5018L56.5084 12.1553C56.689 12.0516 56.9263 12 57.1634 12C57.4007 12 57.638 12.0516 57.8184 12.1553L60.5814 13.7403C60.706 13.8119 60.7866 13.8991 60.8252 13.9908C60.8919 13.832 60.8307 13.6588 60.6398 13.5267C60.8897 13.6994 60.919 13.9427 60.7279 14.1319ZM60.6383 13.5257C60.6378 13.5252 60.6373 13.5249 60.6368 13.5247C60.6373 13.5249 60.6378 13.5252 60.6383 13.5257ZM60.6337 13.5224C60.6334 13.5224 60.6334 13.5221 60.6332 13.5221C60.6332 13.5221 60.6334 13.5224 60.6337 13.5224ZM60.6305 13.52C60.6302 13.52 60.6302 13.52 60.6302 13.5197C60.6302 13.52 60.6302 13.52 60.6305 13.52ZM60.5863 13.4925C60.586 13.4922 60.586 13.4922 60.5858 13.4922C60.586 13.4922 60.586 13.4922 60.5863 13.4925Z" fill="#2D4F80"/>
<path fill-rule="evenodd" clip-rule="evenodd" d="M61.1583 15.5957L60.7115 15.3327L61.3798 14.9493C61.8347 14.6883 62.0303 14.3343 61.9684 13.993C61.9754 13.9556 61.9794 13.9183 61.9802 13.8809V15.1243C61.9771 15.1261 61.9741 15.1276 61.9711 15.1293L61.1583 15.5957ZM60.4961 15.2057L61.3796 14.6989C61.3811 14.6979 61.3826 14.6971 61.3841 14.6961C61.3826 14.6971 61.3811 14.6979 61.3796 14.6989L60.4961 15.2057ZM61.3846 14.6958C61.3859 14.695 61.3874 14.6943 61.3886 14.6935C61.3874 14.6943 61.3861 14.695 61.3846 14.6958ZM61.3888 14.6934C61.3903 14.6924 61.3918 14.6916 61.3931 14.6909C61.3918 14.6916 61.3903 14.6924 61.3888 14.6934ZM61.3934 14.6907C61.4042 14.6845 61.4148 14.678 61.4253 14.6717C61.4148 14.678 61.4042 14.6845 61.3934 14.6907ZM61.4254 14.6716C61.4299 14.6688 61.4344 14.6661 61.4387 14.6634C61.4344 14.6661 61.4299 14.6688 61.4254 14.6716ZM61.4396 14.663C61.4409 14.6622 61.4419 14.6615 61.4431 14.6607C61.4419 14.6615 61.4409 14.6622 61.4396 14.663ZM61.4451 14.6594C61.4459 14.6591 61.4466 14.6586 61.4471 14.6584C61.4464 14.6586 61.4459 14.6591 61.4451 14.6594ZM61.4493 14.6567C61.4496 14.6565 61.4498 14.6562 61.4503 14.656C61.4498 14.6562 61.4496 14.6565 61.4493 14.6567Z" fill="#4E6990"/>
<path fill-rule="evenodd" clip-rule="evenodd" d="M59.7098 14.7421L56.0723 12.5994L56.5336 12.3359C56.7032 12.2579 56.9096 12.2188 57.1158 12.2188C57.3509 12.2188 57.5857 12.2699 57.7656 12.3728L60.5281 13.9578C60.6176 14.0092 60.6846 14.0685 60.7295 14.1316C60.6901 14.1707 60.6412 14.2076 60.583 14.241L59.7098 14.7421Z" fill="#5B6F91"/>
<path fill-rule="evenodd" clip-rule="evenodd" d="M60.4958 15.2049L59.7086 14.7415L60.5818 14.2404C60.64 14.207 60.689 14.1701 60.7284 14.131C60.9195 13.9418 60.8902 13.6984 60.6403 13.5257C60.6398 13.5254 60.6393 13.5249 60.6388 13.5247C60.6383 13.5242 60.6378 13.5239 60.6373 13.5237C60.6363 13.5229 60.6353 13.5222 60.6343 13.5214C60.634 13.5214 60.6338 13.5212 60.6338 13.5212C60.6328 13.5204 60.6315 13.5197 60.6305 13.519C60.6303 13.519 60.6303 13.519 60.6303 13.5187C60.6162 13.5095 60.6017 13.5003 60.5864 13.4915C60.5861 13.4913 60.5861 13.4913 60.5859 13.4913C60.5846 13.4905 60.5831 13.4895 60.5818 13.4888L57.8189 11.9038C57.6385 11.8001 57.4012 11.7482 57.1639 11.7482C56.9268 11.7482 56.6895 11.8001 56.5089 11.9038L55.6893 12.374L54.9023 11.9103L55.7114 11.4461C56.112 11.2165 56.6381 11.1016 57.1641 11.1016C57.6899 11.1016 58.216 11.2165 58.6166 11.4461L61.3793 13.0311C61.7865 13.2649 61.9867 13.5733 61.9796 13.8802C61.9789 13.9176 61.9749 13.955 61.9679 13.9924C61.9679 13.9916 61.9676 13.9906 61.9676 13.9899C61.9232 14.2304 61.7511 14.4645 61.4503 14.6552C61.4498 14.6555 61.4496 14.6557 61.4493 14.656C61.4483 14.6565 61.4476 14.657 61.4466 14.6577C61.4461 14.658 61.4453 14.6585 61.4446 14.6587C61.4441 14.6592 61.4433 14.6597 61.4428 14.66C61.4416 14.6607 61.4405 14.6615 61.4393 14.6622C61.439 14.6622 61.4388 14.6625 61.4385 14.6627C61.4343 14.6654 61.4298 14.6682 61.4252 14.6709C61.4147 14.6772 61.4042 14.6836 61.3934 14.6899C61.3934 14.6899 61.3934 14.6899 61.3931 14.6901C61.3919 14.6909 61.3904 14.6916 61.3889 14.6926C61.3889 14.6926 61.3886 14.6926 61.3884 14.6929C61.3871 14.6936 61.3856 14.6944 61.3844 14.6951C61.3841 14.6954 61.3841 14.6954 61.3839 14.6954C61.3823 14.6964 61.3808 14.6971 61.3793 14.6981L60.4958 15.2049Z" fill="#4E6990"/>
<path fill-rule="evenodd" clip-rule="evenodd" d="M60.8258 13.9897C60.7872 13.8979 60.7067 13.8107 60.582 13.7391L57.819 12.1541C57.6386 12.0504 57.4013 11.9988 57.164 11.9988C56.927 11.9988 56.6896 12.0504 56.509 12.1541L55.9049 12.5007L55.6895 12.3738L56.509 11.9036C56.6896 11.7999 56.927 11.748 57.164 11.748C57.4013 11.748 57.6386 11.7999 57.819 11.9036L60.582 13.4886C60.5833 13.4894 60.5848 13.4904 60.586 13.4911C60.5863 13.4911 60.5863 13.4911 60.5865 13.4913C60.6018 13.5001 60.6164 13.5093 60.6304 13.5185C60.6304 13.5188 60.6304 13.5188 60.6307 13.5188C60.6317 13.5195 60.6329 13.5203 60.6339 13.521C60.6342 13.521 60.6342 13.5213 60.6344 13.5213C60.6354 13.522 60.6364 13.5228 60.6374 13.5235C60.6379 13.5238 60.6384 13.524 60.6389 13.5245C60.6394 13.5248 60.6399 13.5253 60.6404 13.5255C60.8314 13.6576 60.8926 13.8309 60.8258 13.9897Z" fill="#5B6F91"/>
<path fill-rule="evenodd" clip-rule="evenodd" d="M60.7113 15.3324L60.4961 15.2053L61.3796 14.6985C61.3811 14.6975 61.3826 14.6967 61.3841 14.6957C61.3844 14.6957 61.3844 14.6957 61.3846 14.6955C61.3862 14.6947 61.3874 14.694 61.3887 14.6932C61.3889 14.693 61.3892 14.693 61.3892 14.693C61.3907 14.692 61.3922 14.6912 61.3934 14.6905C61.3937 14.6902 61.3937 14.6902 61.3937 14.6902C61.4045 14.684 61.415 14.6775 61.4255 14.6713C61.4301 14.6686 61.4346 14.6658 61.4388 14.6631C61.4391 14.6628 61.4393 14.6626 61.4396 14.6626C61.4408 14.6618 61.4418 14.6611 61.4431 14.6603C61.4436 14.6601 61.4444 14.6596 61.4449 14.6591C61.4456 14.6588 61.4461 14.6583 61.4469 14.6581C61.4479 14.6573 61.4486 14.6568 61.4496 14.6563C61.4499 14.6561 61.4501 14.6558 61.4506 14.6556C61.7514 14.4649 61.9235 14.2308 61.9679 13.9902C61.9679 13.991 61.9682 13.992 61.9682 13.9927C62.0301 14.334 61.8344 14.688 61.3796 14.949L60.7113 15.3324Z" fill="#5B6F91"/>
<path fill-rule="evenodd" clip-rule="evenodd" d="M66.9875 17.8138C66.9426 17.7508 66.8756 17.6914 66.786 17.6401L64.0236 16.0548C63.8439 15.9521 63.6091 15.901 63.3741 15.901C63.1679 15.901 62.9614 15.9402 62.7916 16.0184L62.3265 16.2839L62.1602 16.186L62.768 15.8372C62.9486 15.7335 63.1859 15.6816 63.4232 15.6816C63.6606 15.6816 63.8976 15.7335 64.0782 15.8369L66.841 17.4222C66.9657 17.4937 67.0464 17.5808 67.0848 17.673C67.1561 17.5035 67.0818 17.318 66.8603 17.1831C67.1458 17.3571 67.1884 17.6149 66.9875 17.8138ZM66.8588 17.1825C66.8575 17.1817 66.8565 17.181 66.8553 17.1802C66.8565 17.181 66.8575 17.1817 66.8588 17.1825ZM66.8541 17.1794C66.8534 17.1791 66.8529 17.1789 66.8524 17.1784C66.8529 17.1789 66.8534 17.1791 66.8541 17.1794ZM66.8494 17.1772C66.8492 17.1769 66.8487 17.1767 66.8482 17.1764C66.8487 17.1767 66.8492 17.1769 66.8494 17.1772ZM66.845 17.1744C66.8447 17.1742 66.8442 17.1739 66.844 17.1737C66.8442 17.1739 66.8447 17.1742 66.845 17.1744Z" fill="#452B69"/>
<path fill-rule="evenodd" clip-rule="evenodd" d="M67.717 19.4589L66.9674 19.0174L67.6395 18.6318C68.0943 18.371 68.2899 18.017 68.228 17.6757C68.2345 17.6413 68.2385 17.6067 68.2398 17.5723V19.159L67.717 19.4589ZM66.752 18.8905L67.6395 18.3812C67.6407 18.3804 67.6422 18.3797 67.6435 18.3789C67.6422 18.3797 67.6407 18.3804 67.6395 18.3812L66.752 18.8905ZM67.6477 18.3768C67.6479 18.3768 67.6479 18.3768 67.6479 18.3768H67.6477Z" fill="#523470"/>
<path fill-rule="evenodd" clip-rule="evenodd" d="M65.9637 18.4257L62.3262 16.2833L62.7913 16.0178C62.9611 15.9395 63.1676 15.9004 63.3738 15.9004C63.6088 15.9004 63.8436 15.9515 64.0233 16.0542L66.7857 17.6395C66.8753 17.6908 66.9423 17.7501 66.9872 17.8132C66.9478 17.8524 66.8989 17.8892 66.8404 17.9227L65.9637 18.4257Z" fill="#5B6F91"/>
<path fill-rule="evenodd" clip-rule="evenodd" d="M66.7514 18.8908L65.9645 18.4271L66.8412 17.924C66.8997 17.8906 66.9486 17.8537 66.988 17.8146C67.1889 17.6156 67.1463 17.3579 66.8608 17.1838C66.8605 17.1836 66.8603 17.1833 66.86 17.1833C66.8588 17.1826 66.8578 17.1819 66.8565 17.1811C66.856 17.1809 66.8555 17.1806 66.855 17.1801C66.8543 17.1799 66.8538 17.1796 66.8533 17.1791C66.8525 17.1786 66.8515 17.1781 66.8508 17.1779C66.8505 17.1776 66.85 17.1774 66.8495 17.1771C66.8485 17.1764 66.8475 17.1756 66.8462 17.1751C66.846 17.1749 66.8455 17.1746 66.8452 17.1744C66.844 17.1739 66.8427 17.1731 66.8415 17.1724L64.0787 15.5871C63.8981 15.4837 63.6608 15.4318 63.4237 15.4318C63.1864 15.4318 62.9491 15.4837 62.7685 15.5871L61.9452 16.0595L61.1582 15.5961L61.971 15.1297C61.974 15.1279 61.977 15.1264 61.98 15.1247C62.3794 14.8983 62.9017 14.7852 63.4237 14.7852C63.9498 14.7852 64.4758 14.9001 64.8762 15.1297L67.639 16.7149C68.0501 16.9508 68.2503 17.2626 68.2393 17.5725C68.238 17.6069 68.234 17.6415 68.2275 17.676C68.2275 17.6752 68.2272 17.6745 68.2272 17.6737C68.1798 17.9305 67.9869 18.1798 67.647 18.377C67.647 18.377 67.647 18.377 67.6467 18.377C67.6455 18.3777 67.6442 18.3785 67.643 18.3792C67.6417 18.38 67.6402 18.3807 67.639 18.3814L66.7514 18.8908Z" fill="#523470"/>
<path fill-rule="evenodd" clip-rule="evenodd" d="M67.0855 17.6735C67.0471 17.5813 66.9663 17.4943 66.8416 17.4227L64.0789 15.8375C63.8983 15.734 63.6612 15.6822 63.4239 15.6822C63.1866 15.6822 62.9493 15.734 62.7686 15.8377L62.1608 16.1865L61.9453 16.0594L62.7686 15.587C62.9493 15.4835 63.1866 15.4316 63.4239 15.4316C63.661 15.4316 63.8983 15.4835 64.0789 15.587L66.8416 17.1722C66.8429 17.173 66.8441 17.1737 66.8454 17.1742C66.8456 17.1744 66.8461 17.1747 66.8464 17.1749C66.8476 17.1754 66.8487 17.1762 66.8497 17.1769C66.8502 17.1772 66.8507 17.1774 66.8509 17.1777C66.8517 17.1779 66.8527 17.1784 66.8534 17.1789C66.8539 17.1794 66.8544 17.1797 66.8552 17.1799C66.8557 17.1804 66.8562 17.1807 66.8567 17.1809C66.8579 17.1817 66.8589 17.1824 66.8602 17.1832C66.8604 17.1832 66.8607 17.1834 66.8609 17.1837C67.0825 17.3185 67.1567 17.504 67.0855 17.6735Z" fill="#5B6F91"/>
<path fill-rule="evenodd" clip-rule="evenodd" d="M66.9674 19.0178L66.752 18.8909L67.6395 18.3816C67.6408 18.3808 67.6423 18.3801 67.6435 18.3793C67.6448 18.3786 67.646 18.3778 67.6473 18.3771H67.6475C67.9875 18.1799 68.1804 17.9306 68.2278 17.6738C68.2278 17.6746 68.228 17.6753 68.228 17.6761C68.29 18.0174 68.0943 18.3713 67.6395 18.6321L66.9674 19.0178Z" fill="#5B6F91"/>
<path opacity="0.3" fill-rule="evenodd" clip-rule="evenodd" d="M70.1111 43.6092L69.649 43.3439L70.5328 42.8416L70.9909 43.1043L70.1111 43.6092ZM68 44.8202L68.1545 44.1935L69.6489 43.3439L70.111 43.6092L68 44.8202ZM70.9902 43.1043L70.5321 42.8415L74.6701 40.4894V40.4805C74.6809 40.7898 74.4807 41.1015 74.07 41.3373L70.9902 43.1043Z" fill="#92B6E7"/>
<path fill-rule="evenodd" clip-rule="evenodd" d="M73.4194 21.7494C73.3745 21.6861 73.3073 21.6267 73.2179 21.5756L70.4552 19.9904C70.2756 19.8874 70.0408 19.8363 69.8055 19.8363C69.5995 19.8363 69.3931 19.8757 69.2232 19.9537L68.8853 20.1467L68.7188 20.0487L69.1999 19.7725C69.3805 19.669 69.6178 19.6172 69.8549 19.6172C70.0922 19.6172 70.3295 19.669 70.5099 19.7725L73.2729 21.3578C73.3976 21.4293 73.4781 21.5165 73.5167 21.6083C73.5829 21.4505 73.523 21.2785 73.3353 21.1468C73.5814 21.3194 73.6095 21.5609 73.4194 21.7494ZM73.3351 21.1467C73.3336 21.1457 73.3323 21.1447 73.3311 21.144C73.3323 21.1447 73.3336 21.1457 73.3351 21.1467ZM73.3298 21.1429C73.3296 21.1426 73.3291 21.1424 73.3286 21.1419C73.3291 21.1424 73.3296 21.1426 73.3298 21.1429ZM73.3257 21.1398C73.3254 21.1395 73.3251 21.1395 73.3251 21.1395C73.3251 21.1395 73.3254 21.1395 73.3257 21.1398ZM73.3214 21.1374C73.3212 21.1372 73.3212 21.1372 73.3209 21.1372C73.3212 21.1372 73.3212 21.1372 73.3214 21.1374ZM73.2767 21.1096C73.2767 21.1096 73.2765 21.1096 73.2765 21.1094C73.2765 21.1096 73.2767 21.1096 73.2767 21.1096Z" fill="#2D4F80"/>
<path opacity="0.05" fill-rule="evenodd" clip-rule="evenodd" d="M70.2909 35.5248L71.0786 35.0729V32.3289L73.3883 22.9577L74.0704 22.5663C74.5252 22.3053 74.7208 21.9516 74.6589 21.6101C74.6654 21.5754 74.6692 21.5408 74.6704 21.5059V40.4895L70.5325 42.8415L69.6487 43.3439L68.1543 44.1935L70.2909 35.5248ZM74.0701 22.3158C74.0716 22.315 74.0731 22.314 74.0746 22.3133C74.0731 22.314 74.0716 22.315 74.0701 22.3158L73.3092 22.7523L74.0701 22.3158ZM74.0787 22.3107C74.0774 22.3114 74.0759 22.3124 74.0747 22.3131C74.0759 22.3124 74.0774 22.3114 74.0787 22.3107ZM74.0842 22.3078C74.0829 22.3085 74.0814 22.3095 74.0799 22.3103C74.0814 22.3095 74.0829 22.3085 74.0842 22.3078ZM74.1166 22.2887C74.1061 22.2952 74.0956 22.3017 74.0848 22.3079C74.0956 22.3014 74.1061 22.2952 74.1166 22.2887ZM74.1299 22.2805C74.1257 22.2832 74.1212 22.286 74.1167 22.2887C74.1212 22.286 74.1257 22.2832 74.1299 22.2805ZM74.1345 22.2779C74.1332 22.2786 74.132 22.2794 74.131 22.2801C74.132 22.2794 74.1332 22.2786 74.1345 22.2779ZM74.1378 22.2755C74.1371 22.276 74.1366 22.2762 74.1358 22.2767C74.1366 22.2765 74.1371 22.276 74.1378 22.2755ZM74.1417 22.2731C74.1412 22.2734 74.1409 22.2734 74.1407 22.2736C74.1409 22.2734 74.1412 22.2734 74.1417 22.2731Z" fill="white"/>
<path fill-rule="evenodd" clip-rule="evenodd" d="M68.8848 20.1463L69.2227 19.9534C69.3925 19.8753 69.599 19.8359 69.8049 19.8359C70.0402 19.8359 70.275 19.887 70.4547 19.99L73.2174 21.5753C73.3067 21.6264 73.3739 21.6857 73.4188 21.749C73.3792 21.7881 73.3303 21.8248 73.2721 21.8584L72.5218 22.2887L68.8848 20.1463Z" fill="#5B6F91"/>
<path fill-rule="evenodd" clip-rule="evenodd" d="M73.3102 22.7538L72.523 22.2901L73.2734 21.8598C73.3316 21.8261 73.3805 21.7895 73.4201 21.7504C73.6103 21.5619 73.5822 21.3203 73.3361 21.1478C73.3346 21.1468 73.3333 21.1458 73.3321 21.1451C73.3316 21.1446 73.3311 21.1443 73.3303 21.1438C73.3301 21.1436 73.3296 21.1433 73.3291 21.1428C73.3281 21.1423 73.3271 21.1416 73.3261 21.1408C73.3258 21.1406 73.3256 21.1406 73.3256 21.1406C73.3245 21.1398 73.3233 21.1391 73.3223 21.1383C73.322 21.1381 73.322 21.1381 73.3218 21.1381C73.308 21.1286 73.2932 21.1196 73.2779 21.1107C73.2779 21.1107 73.2776 21.1107 73.2776 21.1104C73.2764 21.1097 73.2749 21.1089 73.2736 21.1082L70.5106 19.5232C70.3303 19.4195 70.093 19.3676 69.8556 19.3676C69.6186 19.3676 69.3813 19.4195 69.2006 19.5232L68.504 19.9228L67.7168 19.4591L68.2396 19.1592L68.4032 19.0655C68.8035 18.8356 69.3296 18.7207 69.8556 18.7207C70.3817 18.7207 70.9078 18.8356 71.3084 19.0655L74.0711 20.6505C74.4818 20.8863 74.682 21.1977 74.6712 21.5073C74.6699 21.5422 74.6662 21.5768 74.6596 21.6115C74.6594 21.6107 74.6594 21.61 74.6591 21.6093C74.6147 21.8496 74.4429 22.0839 74.1421 22.2746C74.1416 22.2749 74.1414 22.2749 74.1411 22.2751C74.1401 22.2759 74.1391 22.2764 74.1383 22.2769C74.1376 22.2774 74.1371 22.2779 74.1363 22.2781C74.1358 22.2786 74.1351 22.2789 74.1346 22.2794C74.1333 22.2801 74.1321 22.2808 74.1311 22.2816C74.1308 22.2816 74.1306 22.2818 74.1303 22.2818C74.1261 22.2846 74.1215 22.2873 74.117 22.2901C74.1065 22.2966 74.0959 22.3028 74.0852 22.3093C74.0849 22.3093 74.0849 22.3093 74.0849 22.3093C74.0837 22.31 74.0821 22.311 74.0806 22.3118C74.0804 22.312 74.0804 22.312 74.0801 22.312C74.0789 22.3128 74.0774 22.3138 74.0761 22.3145C74.0759 22.3145 74.0759 22.3147 74.0756 22.3147C74.0741 22.3155 74.0726 22.3165 74.0711 22.3172L73.3102 22.7538Z" fill="#4E6990"/>
<path fill-rule="evenodd" clip-rule="evenodd" d="M70.291 35.526L71.0787 32.3301V35.074L70.291 35.526Z" fill="#5B6F91"/>
<path fill-rule="evenodd" clip-rule="evenodd" d="M73.5174 21.6088C73.4788 21.5171 73.3982 21.4298 73.2735 21.3583L70.5106 19.773C70.3302 19.6696 70.0929 19.6177 69.8556 19.6177C69.6185 19.6177 69.3812 19.6696 69.2006 19.773L68.7194 20.0493L68.5039 19.9224L69.2006 19.5227C69.3812 19.419 69.6185 19.3672 69.8556 19.3672C70.0929 19.3672 70.3302 19.419 70.5106 19.5227L73.2735 21.1077C73.2748 21.1085 73.2763 21.1092 73.2776 21.11C73.2776 21.1102 73.2778 21.1102 73.2778 21.1102C73.2931 21.1192 73.3079 21.1282 73.3217 21.1377C73.322 21.1377 73.322 21.1377 73.3222 21.1379C73.3232 21.1387 73.3245 21.1394 73.3255 21.1402C73.3255 21.1402 73.3257 21.1402 73.326 21.1404C73.327 21.1412 73.328 21.1419 73.329 21.1424C73.3295 21.1429 73.33 21.1431 73.3302 21.1434C73.331 21.1439 73.3315 21.1441 73.332 21.1446C73.3333 21.1454 73.3345 21.1464 73.336 21.1474C73.5237 21.279 73.5836 21.451 73.5174 21.6088Z" fill="#5B6F91"/>
<path fill-rule="evenodd" clip-rule="evenodd" d="M73.3893 22.9593L73.4237 22.8204L73.3105 22.7539L74.0714 22.3174C74.0729 22.3166 74.0744 22.3156 74.0759 22.3149C74.0762 22.3149 74.0762 22.3146 74.0764 22.3146C74.0777 22.3139 74.0792 22.3129 74.0804 22.3121C74.0807 22.3121 74.0807 22.3121 74.081 22.3119C74.0825 22.3111 74.084 22.3101 74.0852 22.3094C74.0852 22.3094 74.0852 22.3094 74.0855 22.3094C74.0963 22.3032 74.1068 22.2967 74.1173 22.2902C74.1218 22.2875 74.1264 22.2847 74.1306 22.282C74.1309 22.282 74.1311 22.2817 74.1314 22.2817C74.1324 22.281 74.1336 22.2802 74.1349 22.2795C74.1354 22.279 74.1361 22.2787 74.1366 22.2782C74.1374 22.2777 74.1379 22.2775 74.1386 22.277C74.1394 22.2765 74.1404 22.276 74.1414 22.2752C74.1417 22.275 74.1419 22.275 74.1424 22.2747C74.4432 22.084 74.615 21.8497 74.6594 21.6094C74.6597 21.6101 74.6597 21.6109 74.6599 21.6116C74.7219 21.9532 74.5262 22.3069 74.0714 22.5679L73.3893 22.9593Z" fill="#5B6F91"/>
</g>
<mask id="mask1_1447_1018" style="mask-type:alpha" maskUnits="userSpaceOnUse" x="25" y="10" width="50" height="46">
<path fill-rule="evenodd" clip-rule="evenodd" d="M67.7189 45.959L73.4225 22.8195L51.8707 10.125L25.5938 19.8364L45.759 45.9857C45.759 45.9857 62.4079 55.4137 62.3111 55.6959C62.2137 55.9781 74.3845 48.545 74.3845 48.545L67.7189 45.959Z" fill="white"/>
</mask>
<g mask="url(#mask1_1447_1018)">
<path fill-rule="evenodd" clip-rule="evenodd" d="M61.38 32.0537C62.1807 32.5134 62.1807 33.261 61.38 33.7207L47.7652 41.5318C47.545 41.6582 47.188 41.6582 46.9677 41.5318C46.7477 41.4054 46.7477 41.2007 46.9677 41.0743L60.5825 33.263C60.9437 33.0558 60.9437 32.7186 60.5825 32.5111L59.263 31.7543C59.4097 31.5352 59.5429 31.3071 59.6729 31.0742L61.38 32.0537Z" fill="#92B6E7"/>
<path fill-rule="evenodd" clip-rule="evenodd" d="M42.0968 38.2791L55.7113 30.4677C56.5123 30.0083 57.8156 30.008 58.6166 30.4677L59.6722 31.0733C59.5422 31.3061 59.409 31.5342 59.2623 31.7533L57.8188 30.9254C57.4578 30.718 56.8701 30.718 56.5088 30.9254L42.8941 38.7365C42.6738 38.8629 42.3171 38.8629 42.0968 38.7365C41.8766 38.6104 41.8766 38.4055 42.0968 38.2791Z" fill="#92B6E7"/>
<path fill-rule="evenodd" clip-rule="evenodd" d="M41.9329 38.524L41.9316 19.4995L56.1991 11.5957L58.1945 11.4648L60.1239 12.7071L61.3079 13.7309L47.4069 35.637L42.8684 38.2952L41.9329 38.524Z" fill="#92B6E7"/>
<path fill-rule="evenodd" clip-rule="evenodd" d="M47.21 40.9269L42.9453 38.4801V20.0938L47.3417 22.1245L47.21 40.9269Z" fill="#76A9CF"/>
<path fill-rule="evenodd" clip-rule="evenodd" d="M61.9804 13.8789V32.8725L47.0024 41.3861L46.8027 41.3066V22.285L61.9804 13.8789Z" fill="#D4EAF2"/>
<path fill-rule="evenodd" clip-rule="evenodd" d="M53.5562 14.0361L56.533 12.3362C56.8965 12.1689 57.4278 12.1796 57.7649 12.3731L60.5274 13.9581C60.7417 14.0807 60.8277 14.2492 60.7881 14.4093L53.2663 18.8759L47.2245 22.5611L42.9453 20.0944L53.5562 14.0361Z" fill="#FFFFFE"/>
<path fill-rule="evenodd" clip-rule="evenodd" d="M47.3418 21.9863V41.6251C47.2059 41.6216 47.0717 41.5912 46.9678 41.5316C46.8594 41.4695 46.805 41.3883 46.8032 41.307L46.8027 41.3065V22.285L47.3418 21.9863Z" fill="#92B6E7"/>
<path fill-rule="evenodd" clip-rule="evenodd" d="M41.9316 19.7373V19.5H42.0077L42.031 19.661L41.9316 19.7373Z" fill="#FFFFFE"/>
<path fill-rule="evenodd" clip-rule="evenodd" d="M46.8027 22.5302V22.2871L46.8762 22.3901L46.8027 22.5302Z" fill="#FFFFFE"/>
<path fill-rule="evenodd" clip-rule="evenodd" d="M47.7645 22.5093L61.3793 14.6982C62.18 14.2385 62.18 13.4908 61.3793 13.0311L58.6166 11.4461C57.8156 10.9867 56.5123 10.9867 55.7113 11.4461L42.0968 19.2575C41.8766 19.3839 41.8766 19.5888 42.0968 19.7152C42.3171 19.8413 42.6738 19.8413 42.8941 19.7152L56.5088 11.9038C56.8701 11.6964 57.4578 11.6964 57.8188 11.9038L60.5818 13.4889C60.943 13.696 60.943 14.0333 60.5818 14.2405L46.9671 22.0518C46.7471 22.1782 46.7471 22.3831 46.9671 22.5095C47.1873 22.6356 47.5443 22.6356 47.7645 22.5093Z" fill="#D4EAF2"/>
<path fill-rule="evenodd" clip-rule="evenodd" d="M51.3125 31.5152L58.3873 27.4562V20.4082L51.3125 24.4674V31.5152Z" fill="#FFFFFE"/>
<path fill-rule="evenodd" clip-rule="evenodd" d="M42.0965 19.7149C42.3167 19.8411 42.6735 19.8411 42.8937 19.7149L56.5085 11.9036C56.8697 11.6962 57.4575 11.6962 57.8185 11.9036L60.5814 13.4886C60.818 13.6242 60.8985 13.8157 60.8253 13.9897C60.7867 13.8979 60.7061 13.8107 60.5814 13.7391L57.8185 12.1541C57.4575 11.947 56.8697 11.947 56.5085 12.1541L42.8937 19.9655C42.6735 20.0919 42.3167 20.0919 42.0965 19.9655C41.9296 19.8697 41.8895 19.7289 41.9758 19.6112C42.0034 19.6489 42.043 19.6843 42.0965 19.7149Z" fill="#FFFFFE"/>
<path fill-rule="evenodd" clip-rule="evenodd" d="M46.9675 22.5098C47.1877 22.6359 47.5447 22.6359 47.7649 22.5096L61.3797 14.6985C61.7246 14.5005 61.9201 14.249 61.968 13.9902C62.0312 14.3323 61.8355 14.6873 61.3797 14.949L47.7649 22.7603C47.5447 22.8867 47.1877 22.8867 46.9675 22.7603C46.8006 22.6646 46.7607 22.524 46.8468 22.4061C46.8744 22.4437 46.9143 22.4791 46.9675 22.5098Z" fill="#FFFFFE"/>
<path fill-rule="evenodd" clip-rule="evenodd" d="M67.638 35.7351C68.4387 36.1945 68.4387 36.9424 67.638 37.4018L54.0235 45.2132C53.8032 45.3396 53.446 45.3396 53.2257 45.2132C53.0055 45.0868 53.0055 44.8819 53.2257 44.7555L66.8402 36.9444C67.2017 36.737 67.2017 36.3999 66.8405 36.1928L65.5212 35.4357C65.6677 35.2168 65.8009 34.9887 65.9309 34.7559L67.638 35.7351Z" fill="#FC5252"/>
<path fill-rule="evenodd" clip-rule="evenodd" d="M48.3546 41.9608L61.9691 34.1495C62.7704 33.6898 64.0734 33.6898 64.8744 34.1495L65.93 34.7552C65.8 34.9881 65.6668 35.2162 65.5203 35.4351L64.0769 34.6069C63.7156 34.3997 63.1279 34.3997 62.7666 34.6069L49.1519 42.4182C48.9319 42.5446 48.5749 42.5446 48.3546 42.4182C48.1344 42.2919 48.1344 42.0869 48.3546 41.9608Z" fill="#FC5252"/>
<path fill-rule="evenodd" clip-rule="evenodd" d="M48.1924 42.2057L48.1914 23.1809L62.4589 15.2771L64.454 15.1465L66.3834 16.3882L67.5674 17.4126L53.6665 39.3184L49.1279 41.9766L48.1924 42.2057Z" fill="#FC5252"/>
<path fill-rule="evenodd" clip-rule="evenodd" d="M53.4697 44.6083L49.2051 42.1617V23.7754L53.6012 25.8059L53.4697 44.6083Z" fill="#FFCDCD"/>
<path fill-rule="evenodd" clip-rule="evenodd" d="M68.2379 17.5605V36.5541L53.2602 45.0677L53.0605 44.9882V25.9667L68.2379 17.5605Z" fill="#FFA3A3"/>
<path fill-rule="evenodd" clip-rule="evenodd" d="M59.8158 17.7173L62.7925 16.0179C63.156 15.8506 63.6873 15.8613 64.0245 16.0543L66.7872 17.6395C67.0009 17.7624 67.0872 17.9307 67.0478 18.0905L59.5258 22.557L53.484 26.2426L49.2051 23.7758L59.8158 17.7173Z" fill="#FFFFFE"/>
<path fill-rule="evenodd" clip-rule="evenodd" d="M53.5994 25.668V45.3065C53.4634 45.303 53.3292 45.2726 53.2254 45.213C53.117 45.1509 53.0626 45.0699 53.061 44.9884L53.0605 44.9879V25.9664L53.5994 25.668Z" fill="#FC5252"/>
<path fill-rule="evenodd" clip-rule="evenodd" d="M48.1914 23.4187V23.1816H48.2672L48.2905 23.3427L48.1914 23.4187Z" fill="#FFFFFE"/>
<path fill-rule="evenodd" clip-rule="evenodd" d="M53.0605 26.2138V25.9707L53.134 26.0739L53.0605 26.2138Z" fill="#FFFFFE"/>
<path fill-rule="evenodd" clip-rule="evenodd" d="M54.0226 26.1928L67.6371 18.3815C68.4378 17.9223 68.4378 17.1744 67.6371 16.715L64.8744 15.1297C64.0734 14.6703 62.7704 14.6703 61.9691 15.1297L48.3546 22.9411C48.1344 23.0675 48.1344 23.2724 48.3546 23.3985C48.5749 23.5249 48.9319 23.5249 49.1519 23.3985L62.7666 15.5872C63.1279 15.38 63.7156 15.38 64.0769 15.5872L66.8396 17.1724C67.2008 17.3799 67.2008 17.7166 66.8394 17.9241L53.2249 25.7354C53.0049 25.8618 53.0046 26.0667 53.2249 26.1928C53.4451 26.3192 53.8023 26.3192 54.0226 26.1928Z" fill="#FFA3A3"/>
<path fill-rule="evenodd" clip-rule="evenodd" d="M57.5703 35.1968L64.6451 31.1378V24.0898L57.5703 28.1488V35.1968Z" fill="#FFFFFE"/>
<path fill-rule="evenodd" clip-rule="evenodd" d="M48.3561 23.3983C48.5764 23.5247 48.9334 23.5247 49.1534 23.3983L62.7681 15.587C63.1293 15.3799 63.7171 15.3799 64.0784 15.587L66.8411 17.1723C67.0777 17.3081 67.1582 17.4991 67.0849 17.6736C67.0465 17.5814 66.9658 17.4943 66.8411 17.4228L64.0784 15.8376C63.7171 15.6304 63.1293 15.6304 62.7681 15.8378L49.1534 23.6489C48.9334 23.7753 48.5764 23.7753 48.3561 23.6489C48.1893 23.5534 48.1494 23.4126 48.2355 23.2949C48.2631 23.3325 48.3027 23.3677 48.3561 23.3983Z" fill="#FFFFFE"/>
<path fill-rule="evenodd" clip-rule="evenodd" d="M53.2252 26.1929C53.4454 26.3193 53.8026 26.3193 54.0229 26.1929L67.6374 18.3816C67.9823 18.1836 68.1777 17.9326 68.2257 17.6738C68.2889 18.0159 68.0932 18.3706 67.6374 18.6321L54.0229 26.4434C53.8026 26.5698 53.4454 26.5698 53.2252 26.4434C53.0583 26.3477 53.0187 26.2071 53.1045 26.0894C53.1321 26.1271 53.172 26.1622 53.2252 26.1929Z" fill="#FFFFFE"/>
<path fill-rule="evenodd" clip-rule="evenodd" d="M74.0716 39.6709C74.8723 40.1303 74.8723 40.8782 74.0716 41.3376L60.4566 49.1487C60.2366 49.2751 59.8793 49.2751 59.6593 49.1487C59.4391 49.0223 59.4391 48.8177 59.6593 48.6913L73.2738 40.8799C73.6351 40.6728 73.6351 40.3357 73.2741 40.1283L71.9545 39.3715C72.1013 39.1523 72.2343 38.9242 72.3645 38.6914L74.0716 39.6709Z" fill="#92B6E7"/>
<path fill-rule="evenodd" clip-rule="evenodd" d="M54.7881 45.898L68.4028 38.0867C69.2036 37.6275 70.507 37.6272 71.308 38.0867L72.3637 38.6925C72.2335 38.9253 72.1005 39.1534 71.9537 39.3725L70.5103 38.5444C70.1493 38.337 69.5615 38.337 69.2003 38.5444L55.5855 46.3555C55.3653 46.4819 55.0083 46.4819 54.7881 46.3555C54.568 46.2293 54.568 46.0244 54.7881 45.898Z" fill="#92B6E7"/>
<path fill-rule="evenodd" clip-rule="evenodd" d="M54.6243 46.1412L54.623 27.1165L68.8905 19.2127L70.8856 19.082L72.8153 20.324L73.9993 21.3481L60.0981 43.2542L55.5598 45.9124L54.6243 46.1412Z" fill="#92B6E7"/>
<path fill-rule="evenodd" clip-rule="evenodd" d="M59.9014 48.5441L55.6367 46.0975V27.7109L60.0331 29.7419L59.9014 48.5441Z" fill="#76A9CF"/>
<path fill-rule="evenodd" clip-rule="evenodd" d="M74.6715 21.4961V40.4899L59.6938 49.0033L59.4941 48.924V29.9022L74.6715 21.4961Z" fill="#D7E8FE"/>
<path fill-rule="evenodd" clip-rule="evenodd" d="M66.2474 21.6531L69.2241 19.9534C69.5876 19.7861 70.1192 19.7968 70.4564 19.99L73.2188 21.5753C73.4328 21.6979 73.5191 21.8664 73.4795 22.0262L65.9577 26.4928L59.9159 30.1784L55.6367 27.7114L66.2474 21.6531Z" fill="#FFFFFE"/>
<path fill-rule="evenodd" clip-rule="evenodd" d="M60.0332 29.6035V49.242C59.8973 49.2388 59.7631 49.2084 59.6592 49.1485C59.5508 49.0865 59.4964 49.0055 59.4946 48.9242L59.4941 48.9237V29.9019L60.0332 29.6035Z" fill="#92B6E7"/>
<path fill-rule="evenodd" clip-rule="evenodd" d="M54.623 27.3545V27.1172H54.6991L54.7224 27.2785L54.623 27.3545Z" fill="#FFFFFE"/>
<path fill-rule="evenodd" clip-rule="evenodd" d="M59.4941 30.1493V29.9062L59.5676 30.0095L59.4941 30.1493Z" fill="#FFFFFE"/>
<path fill-rule="evenodd" clip-rule="evenodd" d="M60.4558 30.1284L74.0708 22.3173C74.8715 21.8576 74.8715 21.11 74.0708 20.6503L71.308 19.0653C70.507 18.6058 69.2036 18.6058 68.4028 19.0653L54.7881 26.8766C54.568 27.0028 54.568 27.2079 54.7881 27.3343C55.0083 27.4602 55.3653 27.4602 55.5855 27.3341L69.2003 19.523C69.5615 19.3153 70.1493 19.3153 70.5103 19.523L73.2733 21.108C73.6343 21.3152 73.6343 21.6524 73.273 21.8596L59.6585 29.6709C59.4383 29.7971 59.4383 30.0022 59.6585 30.1284C59.8785 30.2545 60.2358 30.2545 60.4558 30.1284Z" fill="#D4EAF2"/>
<path fill-rule="evenodd" clip-rule="evenodd" d="M64.0039 39.1324L71.0787 35.0731V28.0254L64.0039 32.0844V39.1324Z" fill="#FFFFFE"/>
<path fill-rule="evenodd" clip-rule="evenodd" d="M54.7878 27.334C55.008 27.4602 55.365 27.4602 55.5853 27.334L69.2 19.5229C69.5612 19.3153 70.149 19.3153 70.51 19.5229L73.273 21.1079C73.5093 21.2436 73.5901 21.4348 73.5168 21.609C73.4782 21.5173 73.3977 21.43 73.273 21.3585L70.51 19.7732C70.149 19.5661 69.5612 19.5661 69.2 19.7732L55.5853 27.5846C55.365 27.7109 55.008 27.7109 54.7878 27.5846C54.6209 27.4888 54.5811 27.348 54.6671 27.2303C54.6947 27.2682 54.7346 27.3034 54.7878 27.334Z" fill="#FFFFFE"/>
<path fill-rule="evenodd" clip-rule="evenodd" d="M59.6589 30.1267C59.8789 30.2529 60.2361 30.2529 60.4562 30.1267L74.0712 22.3157C74.4161 22.1177 74.6115 21.8662 74.6592 21.6074C74.7224 21.9495 74.527 22.3044 74.0712 22.566L60.4562 30.3773C60.2361 30.5037 59.8789 30.5037 59.6589 30.3773C59.4918 30.2816 59.4522 30.1407 59.5383 30.023C59.5656 30.0609 59.6057 30.0961 59.6589 30.1267Z" fill="#FFFFFE"/>
</g>
<path opacity="0.05" fill-rule="evenodd" clip-rule="evenodd" d="M53.7597 85.9992C53.4069 85.9992 53.054 85.9221 52.7848 85.7676C52.2462 85.459 52.2462 84.9581 52.7848 84.6493L77.9314 70.216C78.2006 70.0614 78.5533 69.9844 78.906 69.9844C79.259 69.9844 79.6117 70.0614 79.8811 70.216C80.4192 70.5248 80.4195 71.0257 79.8811 71.3343L54.7343 85.7678C54.4651 85.9221 54.1124 85.9992 53.7597 85.9992Z" fill="#000E4B"/>
<path fill-rule="evenodd" clip-rule="evenodd" d="M84.1804 62.3978C84.1563 62.3569 84.1087 62.3363 84.0622 62.3462L82.541 62.674L83.1401 63.6869L84.1684 62.5252C84.1997 62.4901 84.2045 62.4385 84.1804 62.3978Z" fill="#D4EAF2"/>
<path fill-rule="evenodd" clip-rule="evenodd" d="M83.5797 63.1457C83.5779 62.9278 83.4219 62.6636 83.2307 62.5564C83.1427 62.5063 83.0631 62.5005 83.0027 62.5282C81.2449 62.514 79.5162 62.9737 78.0008 63.8589L77.8906 63.9232L79.7801 67.1174L80.338 66.7497C81.5188 65.9717 82.5143 64.9463 83.254 63.7452L83.4929 63.3576C83.547 63.3187 83.5804 63.2467 83.5797 63.1457Z" fill="#381DDB"/>
<path fill-rule="evenodd" clip-rule="evenodd" d="M80.1604 66.265C80.1538 65.4296 79.5555 64.4185 78.8243 64.0064C78.093 63.5943 77.5055 63.9376 77.5118 64.7727C77.5185 65.6084 78.1168 66.6195 78.8481 67.0316C79.5794 67.4437 80.1666 67.1004 80.1604 66.265Z" fill="#D7E8FE"/>
<path fill-rule="evenodd" clip-rule="evenodd" d="M68.5664 74.0584L79.7801 67.1161L77.8907 63.9219L66.334 70.2841L68.5664 74.0584Z" fill="#D7E8FE"/>
<path fill-rule="evenodd" clip-rule="evenodd" d="M69.0141 73.0547C69.0063 72.0675 68.2996 70.8726 67.4354 70.3857C66.5712 69.8989 65.8771 70.3042 65.8848 71.2914C65.8926 72.2786 66.5993 73.4735 67.4635 73.9603C68.3275 74.4472 69.0219 74.0416 69.0141 73.0547Z" fill="#D4EAF2"/>
<path fill-rule="evenodd" clip-rule="evenodd" d="M68.3751 73.4275C68.3676 72.4405 67.6609 71.2457 66.7967 70.7588C65.9325 70.2719 65.2384 70.6773 65.2462 71.6645C65.2539 72.6514 65.9606 73.8465 66.8248 74.3334C67.6888 74.8203 68.3832 74.4147 68.3751 73.4275Z" fill="#D4EAF2"/>
<path fill-rule="evenodd" clip-rule="evenodd" d="M53.092 83.0982L67.9272 74.4325L65.6948 70.6582L50.8594 79.3239L53.092 83.0982Z" fill="#D7E8FE"/>
<path fill-rule="evenodd" clip-rule="evenodd" d="M53.5395 82.0937C53.5319 81.1065 52.825 79.9117 51.9608 79.4248C51.0966 78.9379 50.4024 79.3433 50.4102 80.3302C50.4177 81.3174 51.1249 82.5123 51.9889 82.9994C52.8529 83.4863 53.5472 83.0807 53.5395 82.0937Z" fill="#D4EAF2"/>
<path fill-rule="evenodd" clip-rule="evenodd" d="M52.9796 81.7773C52.9457 81.1945 52.4681 80.4688 51.9132 80.1562C51.3583 79.8436 50.9363 80.0624 50.9707 80.645C51.0046 81.2279 51.4822 81.9536 52.0371 82.2662C52.5918 82.5788 53.014 82.3599 52.9796 81.7773Z" fill="#381DDB"/>
<path fill-rule="evenodd" clip-rule="evenodd" d="M69.1271 72.9888C69.1194 72.0019 68.4127 70.8068 67.5487 70.3199C67.2005 70.124 66.8809 70.0749 66.623 70.1479C66.9033 69.8567 67.3633 69.8223 67.8871 70.1172C68.7511 70.6041 69.4583 71.7992 69.4658 72.7862C69.4706 73.3757 69.2235 73.7554 68.8409 73.8639C69.023 73.6744 69.1302 73.378 69.1271 72.9888Z" fill="#FFFFFE"/>
<path fill-rule="evenodd" clip-rule="evenodd" d="M69.129 72.988C69.1212 72.0009 68.4146 70.806 67.5506 70.3191C67.1184 70.0758 66.7288 70.0556 66.4481 70.2194L65.6074 70.7105L66.008 71.3873C66.0813 72.2853 66.6859 73.3076 67.4395 73.8075L67.8401 74.4846L68.6807 73.9937C68.9614 73.8297 69.133 73.4816 69.129 72.988Z" fill="#381DDB"/>
<path fill-rule="evenodd" clip-rule="evenodd" d="M68.2878 73.4785C68.28 72.4913 67.573 71.2964 66.7091 70.8095C65.8449 70.3227 65.1507 70.7283 65.1583 71.7152C65.1663 72.7024 65.873 73.8973 66.7369 74.3841C67.6011 74.871 68.2953 74.4654 68.2878 73.4785Z" fill="#D7E8FE"/>
<path fill-rule="evenodd" clip-rule="evenodd" d="M52.2818 82.2163L51.3185 80.5879L48.1742 82.4247C47.7214 82.6889 47.5704 83.2678 47.8363 83.7173C48.1024 84.1672 48.6847 84.3176 49.1372 84.0531L52.2818 82.2163Z" fill="#FFA3A3"/>
<path fill-rule="evenodd" clip-rule="evenodd" d="M52.4752 81.7813C52.4719 81.3555 52.1669 80.8398 51.7941 80.6299C51.421 80.4199 51.1218 80.5947 51.125 81.0205C51.1285 81.4465 51.4333 81.9621 51.8064 82.172C52.1789 82.3821 52.4784 82.2074 52.4752 81.7813Z" fill="#FFA3A3"/>
<path fill-rule="evenodd" clip-rule="evenodd" d="M55.969 76.0344L55.4976 75.7689C55.2267 75.6161 54.8687 75.6545 54.4891 75.8759L52.8731 76.8197C52.5683 76.9979 52.3222 77.429 52.325 77.7807L52.3312 78.5844C52.3322 78.7193 52.266 78.8741 52.1687 78.988L52.2291 79.3605L51.8265 79.1311L51.8275 79.1304C51.7691 79.1012 51.7319 79.0337 51.7312 78.9349L51.7247 78.1312C51.7191 77.3983 52.2319 76.4993 52.8678 76.1279L54.4836 75.1841C55.0235 74.8687 55.533 74.8149 55.9183 75.0318L56.3897 75.2975C56.6606 75.4498 57.0188 75.4119 57.3986 75.1901L63.9118 71.3856C63.996 71.3362 64.0721 71.3323 64.1272 71.3647V71.3642L64.5289 71.593L64.1849 71.7246C64.1373 71.8682 64.0362 72.0081 63.9173 72.0774L57.4039 75.8821C56.8641 76.1974 56.3543 76.2515 55.969 76.0344Z" fill="#381DDB"/>
<path fill-rule="evenodd" clip-rule="evenodd" d="M55.9058 75.9993C55.6349 75.847 55.2769 75.8849 54.8973 76.1067L53.2813 77.0506C52.9765 77.2288 52.7304 77.6596 52.7332 78.0113L52.7394 78.8151C52.7409 79.006 52.608 79.2394 52.4422 79.3363C52.2766 79.4331 52.1409 79.3565 52.1394 79.1656L52.1329 78.3618C52.1273 77.6287 52.6401 76.7302 53.276 76.3588L54.8918 75.415C55.4317 75.0996 55.9412 75.0453 56.3265 75.2621L56.7979 75.5281C57.0686 75.6807 57.427 75.6426 57.8068 75.4207L64.32 71.616C64.486 71.5195 64.6215 71.5958 64.6227 71.7868C64.6242 71.9777 64.4913 72.2113 64.3255 72.308L57.8121 76.1125C57.2723 76.4281 56.7625 76.4822 56.3772 76.2653L55.9058 75.9993Z" fill="#381DDB"/>
<path fill-rule="evenodd" clip-rule="evenodd" d="M52.7129 78.1443L52.7189 78.9478L52.7164 78.9642C52.7315 78.9139 52.7398 78.8633 52.7393 78.8152L52.733 78.0117C52.733 77.9888 52.7365 77.9648 52.7383 77.9414C52.723 78.0102 52.7122 78.0788 52.7129 78.1443Z" fill="#FFFFFE"/>
<path opacity="0.2" fill-rule="evenodd" clip-rule="evenodd" d="M47.069 65.302C45.7603 65.302 44.4516 65.0153 43.4531 64.4424C41.4558 63.2964 41.4558 61.4387 43.4529 60.2929C44.4513 59.72 45.76 59.4336 47.0688 59.4336C48.3778 59.4336 49.6865 59.72 50.6852 60.2932C52.6826 61.4387 52.6826 63.2964 50.6855 64.4424C49.6868 65.0153 48.378 65.302 47.069 65.302Z" fill="#000E4B"/>
<path fill-rule="evenodd" clip-rule="evenodd" d="M52.8879 59.8573V58.2342H52.5796C52.3024 57.7602 51.8413 57.314 51.1836 56.9368C48.9118 55.633 45.2279 55.633 42.9556 56.9368C42.2978 57.314 41.8367 57.7602 41.56 58.2342H41.252V59.8486H41.2522C41.2484 60.7059 41.8156 61.5637 42.9558 62.2179C45.2279 63.5217 48.9118 63.5217 51.1838 62.2179C52.32 61.5662 52.8879 60.7116 52.8879 59.8573Z" fill="#FC5252"/>
<path fill-rule="evenodd" clip-rule="evenodd" d="M51.1841 60.595C48.9121 61.8985 45.2282 61.8985 42.9559 60.5947C40.6841 59.2914 40.6838 57.1777 42.9559 55.8741C45.2279 54.5706 48.9121 54.5706 51.1839 55.8744C53.4562 57.1777 53.4562 59.2914 51.1841 60.595Z" fill="#FFA3A3"/>
<path fill-rule="evenodd" clip-rule="evenodd" d="M51.1822 60.5939C48.9101 61.8977 45.2262 61.8977 42.9541 60.5939C41.8654 59.9695 41.304 59.1585 41.2588 58.3398C41.2097 59.2293 41.7711 60.1278 42.9541 60.8066C45.2262 62.1101 48.9101 62.1101 51.1822 60.8066C52.3655 60.1278 52.9264 59.2296 52.8775 58.3398C52.8321 59.1585 52.2711 59.9695 51.1822 60.5939Z" fill="#FFFFFE"/>
<path fill-rule="evenodd" clip-rule="evenodd" d="M44.2646 59.3402C44.1665 59.2841 44.1111 59.2076 44.1113 59.1273L44.1171 56.9522C44.1173 56.7865 44.3524 56.6521 44.6414 56.6523C44.9309 56.6523 45.1644 56.7872 45.1642 56.9535L45.1594 58.7566L50.4263 58.1159C50.7095 58.0813 50.9872 58.185 51.0471 58.3475C51.1074 58.5096 50.9265 58.6694 50.6438 58.7038L44.7435 59.4215C44.5887 59.4404 44.4277 59.4183 44.3047 59.3609L44.2646 59.3402Z" fill="#FFFFFE"/>
<path opacity="0.05" fill-rule="evenodd" clip-rule="evenodd" d="M17.0003 41.3798L12.6777 38.8999L17.0003 36.4199L21.3229 38.8999L17.0003 41.3798Z" fill="#000E4B"/>
<path fill-rule="evenodd" clip-rule="evenodd" d="M21.3223 35.7509L17 38.2306V33.271L21.3223 30.791V35.7509Z" fill="#FC5252"/>
<path fill-rule="evenodd" clip-rule="evenodd" d="M17.0003 33.2705L12.6777 30.7905L17.0001 28.3105L21.3227 30.7908L17.0003 33.2705Z" fill="#FFA3A3"/>
<path fill-rule="evenodd" clip-rule="evenodd" d="M17.0003 38.2306L12.6777 35.7509V30.791L17.0003 33.271V38.2306Z" fill="#FC5252"/>
<path fill-rule="evenodd" clip-rule="evenodd" d="M15.4435 35.5513L14.2344 34.8578V33.4707L15.4435 34.1642V35.5513Z" fill="#FFFFFE"/>
<path fill-rule="evenodd" clip-rule="evenodd" d="M18.4941 68.917L22.9727 66.277C23.35 66.0135 23.646 65.481 23.6465 65.0358L23.6495 64.686C23.6498 64.4036 23.5309 64.2208 23.3475 64.168L14.5312 69.0419L7.35156 72.9009L7.35808 75.2605L18.4941 68.917Z" fill="#FFFFFE"/>
<path fill-rule="evenodd" clip-rule="evenodd" d="M7.13086 76.4704L7.36893 76.6072L7.41283 76.5319L7.26457 76.416L7.13086 76.4704Z" fill="#FFFFFE"/>
<path fill-rule="evenodd" clip-rule="evenodd" d="M7.13672 73.3359L7.38056 73.476L7.3196 73.3439L7.13672 73.3359Z" fill="#FFFFFE"/>
<path fill-rule="evenodd" clip-rule="evenodd" d="M0 63.5094L8.65346 58.5547L16.1585 62.8694L7.50502 67.8239L0 63.5094Z" fill="#FFFFFE"/>
</svg>
