<svg width="30" height="30" viewBox="0 0 30 30" fill="none" xmlns="http://www.w3.org/2000/svg">
<g opacity="0.3">
<path d="M21.8605 6.94145C21.622 7.19651 21.622 7.61045 21.8605 7.8654L27.9158 14.3465H0.610499C0.273402 14.3465 0 14.6391 0 14.9999C0 15.3607 0.273402 15.6534 0.610499 15.6534H27.9157L21.8603 22.1346C21.622 22.3896 21.6219 22.8035 21.8604 23.0586C22.0988 23.3138 22.4854 23.3138 22.7238 23.0585L29.8212 15.4619C29.9404 15.3344 30 15.1671 30 14.9999C30 14.8328 29.9404 14.6655 29.8211 14.538L22.7237 6.94145C22.4854 6.68618 22.0988 6.68618 21.8605 6.94145Z" fill="#222222"/>
</g>
</svg>
