<svg width="30" height="30" viewBox="0 0 30 30" fill="none" xmlns="http://www.w3.org/2000/svg">
<g opacity="0.3">
<path d="M8.1395 6.94145C8.378 7.19651 8.378 7.61045 8.1395 7.8654L2.0842 14.3465H29.3895C29.7266 14.3465 30 14.6391 30 14.9999C30 15.3607 29.7266 15.6534 29.3895 15.6534H2.0843L8.1397 22.1346C8.378 22.3896 8.3781 22.8035 8.1396 23.0586C7.9012 23.3138 7.5146 23.3138 7.2762 23.0585L0.178801 15.4619C0.0596008 15.3344 0 15.1671 0 14.9999C0 14.8328 0.0595989 14.6655 0.1789 14.538L7.2763 6.94145C7.5146 6.68618 7.9012 6.68618 8.1395 6.94145Z" fill="#222222"/>
</g>
</svg>
