<svg width="24" height="24" viewBox="0 0 24 24" fill="none" xmlns="http://www.w3.org/2000/svg">
<path fill-rule="evenodd" clip-rule="evenodd" d="M2 12C2 17.5228 6.47715 22 12 22C17.5228 22 22 17.5228 22 12C22 6.47715 17.5228 2 12 2C6.47716 2 2 6.47715 2 12ZM3.29016e-06 12C3.00047e-06 18.6274 5.37259 24 12 24C18.6274 24 24 18.6274 24 12C24 5.37258 18.6274 -2.34843e-07 12 -5.24537e-07C5.37259 -8.1423e-07 3.57985e-06 5.37258 3.29016e-06 12Z" fill="#FFA3A3"/>
<path d="M7.80179 9.42814C8.21765 8.99062 8.90301 8.99065 9.3188 9.42832L12 12.2505L14.681 9.42842C15.0969 8.99087 15.7823 8.99066 16.1982 9.42834C16.6004 9.85162 16.6004 10.5279 16.1983 10.9511L12.7584 14.5719C12.5535 14.7874 12.2788 14.9 12 14.9C11.721 14.9 11.4461 14.7872 11.2414 14.5717L7.80162 10.951C7.39942 10.5278 7.39944 9.85141 7.80179 9.42814Z" fill="#FFA3A3"/>
</svg>
