<svg width="31" height="30" viewBox="0 0 31 30" fill="none" xmlns="http://www.w3.org/2000/svg">
<path fill-rule="evenodd" clip-rule="evenodd" d="M13.7712 22.3048C13.2044 22.4686 12.5911 22.5513 11.9477 22.5513C11.2311 22.5513 10.5423 22.4692 9.90002 22.3066C8.65717 21.993 7.73877 21.3985 7.30979 20.6324C7.1249 20.3013 7.03125 19.9484 7.03125 19.5829C7.03125 19.2064 7.12128 18.8246 7.29891 18.4464C7.97985 16.9951 9.77495 16.0187 11.7634 16.0187H11.8202C11.6589 15.7341 11.5809 15.4392 11.5809 15.1293C11.5809 14.9752 11.6015 14.8181 11.6425 14.658C9.55683 14.6109 7.99617 13.0834 7.99617 11.0696C7.99617 9.64792 9.13268 8.26248 10.758 7.70299C11.2444 7.53502 11.7404 7.44922 12.228 7.44922H16.6883C16.8399 7.44922 16.9747 7.5477 17.0218 7.69211C17.0689 7.83591 17.0169 7.99421 16.8943 8.08303L15.8968 8.80506C15.8369 8.84735 15.765 8.87031 15.6907 8.87031H15.3336C15.7946 9.42316 16.0647 10.2116 16.0647 11.0968C16.0647 12.0738 15.5705 12.9976 14.6708 13.7015C13.976 14.2429 13.9488 14.3921 13.9488 14.7009C13.9573 14.8707 14.4412 15.4247 14.9753 15.8024C16.2194 16.6821 16.6822 17.5455 16.6822 18.9859C16.6816 20.491 15.5391 21.7912 13.7712 22.3048ZM23.8439 14.6544C23.8439 14.8477 23.6862 15.0048 23.4934 15.0048H20.9588V17.5407C20.9588 17.734 20.8011 17.8911 20.6096 17.8911H19.8875C19.693 17.8911 19.5359 17.734 19.5359 17.5407V15.0048H17.0031C16.8097 15.0048 16.6526 14.8489 16.6526 14.6544V13.9335C16.6526 13.7402 16.8097 13.5819 17.0031 13.5819H19.5359V11.0485C19.5359 10.8545 19.693 10.698 19.8875 10.698H20.6096C20.8011 10.698 20.9588 10.8545 20.9588 11.0485V13.5819H23.4928C23.6856 13.5819 23.8433 13.739 23.8433 13.9323L23.8439 14.6544ZM13.3183 17.3689L13.3183 17.3688C13.276 17.3398 13.2332 17.3104 13.1894 17.2808C12.8855 17.1877 12.5629 17.1394 12.2324 17.1352H12.1925C10.6735 17.1352 9.34184 18.0542 9.34184 19.1031C9.34184 20.245 10.4832 21.1374 11.9393 21.1374C13.8601 21.1374 14.8335 20.474 14.8335 19.1689C14.8335 19.0457 14.819 18.9176 14.7881 18.7889C14.6587 18.2845 14.1972 17.969 13.499 17.4917L13.4909 17.4862C13.4343 17.4486 13.377 17.4092 13.3183 17.3689ZM12.4152 13.5058H12.414H12.4001C11.4352 13.4756 10.4708 12.3354 10.298 11.0158C10.202 10.2781 10.3573 9.61469 10.724 9.19598C10.9603 8.92529 11.2714 8.78149 11.62 8.78149L11.6593 8.7827C12.6448 8.8111 13.5892 9.91075 13.7614 11.2315C13.8592 11.9705 13.6943 12.6665 13.3221 13.0907C13.0846 13.3626 12.7783 13.5058 12.4152 13.5058Z" fill="#222222"/>
</svg>
