<svg width="31" height="30" viewBox="0 0 31 30" fill="none" xmlns="http://www.w3.org/2000/svg">
<path d="M11.75 22.2653H8V9.14024H11.75V22.2653ZM9.99123 8.33589C9.01998 8.33589 8.23438 7.54838 8.23438 6.57713C8.23438 5.60587 9.02189 4.81836 9.99123 4.81836C10.9625 4.82021 11.75 5.60772 11.75 6.57713C11.75 7.54838 10.9625 8.33589 9.99123 8.33589ZM24.875 22.2653H21.125V14.1503C21.125 13.1996 20.8531 12.534 19.685 12.534C17.7481 12.534 17.375 14.1503 17.375 14.1503V22.2653H13.625V9.14024H17.375V10.3946C17.9112 9.98401 19.2499 9.14209 21.125 9.14209C22.34 9.14209 24.875 9.86959 24.875 14.2646V22.2653Z" fill="#222222"/>
</svg>
