<svg width="31" height="30" viewBox="0 0 31 30" fill="none" xmlns="http://www.w3.org/2000/svg">
<path d="M18.8823 14.7684C18.5217 14.5271 18.0795 14.3193 17.5683 14.1509C17.0633 13.9846 16.4923 13.8309 15.8708 13.694C15.3795 13.5768 15.0214 13.4865 14.8083 13.4262C14.5998 13.3665 14.392 13.284 14.1902 13.179C13.9955 13.079 13.8414 12.9587 13.7323 12.8215C13.6292 12.6918 13.5792 12.5415 13.5792 12.3615C13.5792 12.068 13.7348 11.8202 14.0552 11.604C14.3873 11.3796 14.8352 11.2662 15.3855 11.2662C15.9783 11.2662 16.4095 11.3687 16.6677 11.5709C16.9333 11.7787 17.1652 12.0734 17.3567 12.4484C17.5217 12.7415 17.6711 12.9452 17.8148 13.0759C17.9695 13.2162 18.1923 13.2884 18.4767 13.2884C18.7892 13.2884 19.0548 13.1743 19.2652 12.9493C19.4742 12.7255 19.5802 12.4693 19.5802 12.1868C19.5802 11.8937 19.4992 11.5899 19.3402 11.2852C19.182 10.984 18.9311 10.6934 18.5933 10.4221C18.2583 10.1524 17.8314 9.93336 17.3252 9.77117C16.822 9.61023 16.2186 9.52867 15.5333 9.52867C14.6755 9.52867 13.9173 9.6518 13.2798 9.89398C12.6342 10.1396 12.133 10.498 11.7895 10.9587C11.4433 11.4227 11.268 11.9609 11.268 12.5577C11.268 13.1837 11.4352 13.7168 11.7648 14.1405C12.0898 14.559 12.5336 14.8934 13.0842 15.1343C13.6227 15.3696 14.2995 15.5784 15.0967 15.754C15.6827 15.8799 16.1567 16.0005 16.5058 16.1127C16.8398 16.2202 17.1161 16.3765 17.3252 16.5774C17.5245 16.7699 17.6217 17.0146 17.6217 17.3268C17.6217 17.7215 17.4355 18.0437 17.0533 18.3124C16.6617 18.5874 16.1414 18.7271 15.5067 18.7271C15.0448 18.7271 14.6698 18.658 14.3914 18.5227C14.1148 18.3877 13.898 18.2159 13.7473 18.0105C13.5908 17.7968 13.442 17.5265 13.3061 17.2055C13.1842 16.9115 13.033 16.683 12.8561 16.529C12.6711 16.368 12.4433 16.2868 12.1798 16.2868C11.8583 16.2868 11.5886 16.3899 11.3783 16.5934C11.1658 16.799 11.058 17.0499 11.058 17.3393C11.058 17.8024 11.2233 18.283 11.5495 18.7668C11.8727 19.2462 12.298 19.6346 12.8139 19.9212C13.5358 20.3152 14.4605 20.5146 15.5633 20.5146C16.4817 20.5146 17.2892 20.3684 17.963 20.0805C18.643 19.7896 19.1677 19.3799 19.523 18.863C19.8795 18.3434 20.0605 17.7502 20.0605 17.0996C20.0605 16.5552 19.9555 16.0871 19.748 15.708C19.5414 15.3312 19.2502 15.0146 18.8823 14.7684ZM19.0958 23.3996C18.3339 23.3996 17.6173 23.2021 16.9908 22.8559C16.5352 22.9427 16.0652 22.9887 15.5845 22.9887C11.3439 22.9887 7.90578 19.4512 7.90578 15.0877C7.90578 14.5434 7.95953 14.0121 8.06141 13.499C7.67297 12.8187 7.44922 12.0271 7.44922 11.1815C7.44922 8.65117 9.44297 6.59961 11.9023 6.59961C12.7736 6.59961 13.5852 6.85773 14.2717 7.30273C14.6986 7.22711 15.1373 7.18711 15.5845 7.18711C19.8258 7.18711 23.2636 10.7246 23.2636 15.0877C23.2636 15.6696 23.2017 16.2368 23.0861 16.783C23.382 17.3962 23.5489 18.0871 23.5489 18.8184C23.5486 21.3477 21.5552 23.3996 19.0958 23.3996Z" fill="#222222"/>
</svg>
