<svg width="71" height="26" viewBox="0 0 71 26" fill="none" xmlns="http://www.w3.org/2000/svg">
<path d="M14.4631 20.4072C14.4631 20.9842 14.7253 21.2727 15.2497 21.2727C15.7942 21.2727 16.248 21.1618 16.6111 20.9398L16.4598 24.7017C15.4917 25.5672 14.4026 26 13.1924 26C10.9133 26 9.67296 25.0346 9.47127 23.1037C8.26113 25.0346 6.62745 26 4.57022 26C2.53315 26 1.21209 25.4895 0.607021 24.4686C0.203643 23.825 0.00195312 23.0926 0.00195312 22.2714C0.00195312 21.4503 0.0624599 20.6957 0.183474 20.0077L1.87766 9.52113H7.02074L5.59883 18.3764C5.53833 18.7759 5.50807 19.1754 5.50807 19.5749C5.50807 20.6402 6.05263 21.1729 7.14176 21.1729C8.04936 21.1729 8.77544 20.8289 9.32 20.1408L11.0444 9.52113H16.1875L14.4933 20.0077C14.4732 20.1408 14.4631 20.274 14.4631 20.4072Z" fill="white"/>
<path d="M32.6827 20.4072C32.6827 20.9842 32.9449 21.2727 33.4693 21.2727C34.0139 21.2727 34.4677 21.1618 34.8307 20.9398L34.6794 24.7017C33.7113 25.5672 32.6222 26 31.4121 26C29.1935 26 27.9632 25.1122 27.7212 23.3367C26.7127 25.1122 25.2303 26 23.2739 26C19.9662 26 18.3124 24.4353 18.3124 21.306C18.3124 20.7734 18.3628 20.1852 18.4636 19.5416L19.0989 15.6466C19.4216 13.6492 20.1578 12.0623 21.3074 10.886C22.4772 9.68758 24.0908 9.08835 26.148 9.08835C27.4186 9.08835 28.4271 9.38796 29.1733 9.9872L30.7163 0.266324H35.8896L32.713 20.0077C32.6928 20.1408 32.6827 20.274 32.6827 20.4072ZM23.7277 18.8092C23.6874 19.009 23.6672 19.2864 23.6672 19.6415C23.6672 19.9966 23.8185 20.3517 24.121 20.7068C24.4235 21.0397 24.9278 21.2061 25.6337 21.2061C26.3598 21.2061 26.985 20.8954 27.5094 20.274L28.417 14.6812C28.1951 14.1263 27.6707 13.8489 26.8438 13.8489C25.2908 13.8489 24.3832 14.6701 24.121 16.3124L23.7277 18.8092Z" fill="white"/>
<path d="M43.6675 21.2727C44.1314 21.2727 44.5449 21.1618 44.9079 20.9398L44.7567 24.7017C43.8087 25.5672 42.7297 26 41.5196 26C39.6842 26 38.4942 25.5339 37.9496 24.6018C37.5866 23.9804 37.4051 23.3257 37.4051 22.6376C37.4051 21.9274 37.4454 21.306 37.5261 20.7734L39.3413 9.52113H44.4844L42.7902 20.0077C42.77 20.1408 42.7599 20.2629 42.7599 20.3739C42.7599 20.9731 43.0625 21.2727 43.6675 21.2727ZM39.9464 4.09475C39.9464 2.67435 40.2287 1.64234 40.7935 0.998719C41.3784 0.332906 42.2759 0 43.486 0C45.1802 0 46.0273 0.82117 46.0273 2.46351C46.0273 3.86172 45.7349 4.88263 45.15 5.52625C44.5852 6.16987 43.6877 6.49168 42.4574 6.49168C40.7834 6.49168 39.9464 5.6927 39.9464 4.09475Z" fill="white"/>
<path d="M61.8945 25.5339H56.2674L54.1194 20.9065L50.489 25.5339H44.8618L51.3966 17.3444L47.4636 9.28809H53.1815L55.2388 13.8489L58.7784 9.28809H64.4963L57.9313 17.3777L61.8945 25.5339Z" fill="white"/>
<path d="M63.921 23.6031C63.921 22.1827 64.2034 21.1507 64.7681 20.507C65.3328 19.8412 66.2304 19.5083 67.4607 19.5083C69.1549 19.5083 70.002 20.3295 70.002 21.9718C70.002 23.37 69.7095 24.391 69.1246 25.0346C68.5599 25.6782 67.6624 26 66.4321 26C64.758 26 63.921 25.201 63.921 23.6031Z" fill="white"/>
</svg>
